<?xml version="1.0" standalone="no"?>
<!DOCTYPE svg PUBLIC "-//W3C//DTD SVG 20010904//EN"
 "http://www.w3.org/TR/2001/REC-SVG-20010904/DTD/svg10.dtd">
<svg version="1.0" xmlns="http://www.w3.org/2000/svg"
 width="1000.000000pt" height="1000.000000pt" viewBox="0 0 1000.000000 1000.000000"
 preserveAspectRatio="xMidYMid meet">
<metadata>
Created by potrace 1.14, written by Peter Selinger 2001-2017
</metadata>
<g transform="translate(0.000000,1000.000000) scale(0.100000,-0.100000)"
fill="#000000" stroke="none">
<path d="M3610 9808 c0 -10 -5 -18 -11 -18 -5 0 -7 6 -3 13 6 10 4 10 -7 0 -7
-7 -26 -13 -41 -13 -16 0 -27 -5 -25 -11 1 -7 -12 -13 -30 -14 -18 -1 -30 2
-27 7 3 4 -2 5 -11 2 -8 -4 -20 -15 -25 -25 -9 -15 -15 -17 -37 -8 -23 8 -24
8 -13 -6 9 -11 9 -15 1 -15 -7 0 -10 -4 -7 -9 3 -4 -5 -6 -18 -4 -26 5 -71
-30 -61 -48 4 -5 3 -9 -2 -8 -21 4 -33 -2 -33 -17 0 -9 -5 -12 -12 -8 -7 5 -9
2 -5 -8 3 -10 0 -15 -11 -14 -11 1 -16 -6 -15 -17 0 -10 -2 -16 -5 -13 -3 3
-15 -2 -26 -11 -20 -18 -20 -17 -6 2 14 19 14 19 -3 6 -14 -11 -15 -16 -5 -29
12 -14 10 -14 -12 -2 -22 12 -24 11 -13 -2 13 -15 8 -28 -9 -28 -5 0 -6 5 -2
12 4 7 3 8 -5 4 -9 -6 -9 -11 1 -24 11 -14 10 -15 -6 -9 -15 6 -17 5 -8 -6 12
-14 7 -27 -10 -27 -5 0 -6 6 -2 13 4 6 3 9 -1 4 -5 -4 -10 -18 -12 -30 -2 -17
-1 -19 7 -7 7 12 9 10 7 -8 -1 -25 -8 -27 -25 -10 -7 7 -6 -2 3 -20 14 -26 14
-36 5 -48 -11 -12 -10 -13 2 -9 9 4 15 0 15 -9 0 -8 -3 -13 -7 -11 -3 2 -12 0
-20 -6 -12 -7 -11 -9 5 -10 11 -1 22 -1 25 -1 3 0 6 -8 6 -19 0 -12 -5 -18
-13 -15 -7 3 -13 1 -13 -4 0 -6 5 -10 10 -10 6 0 5 -8 -2 -20 -7 -11 -18 -20
-24 -20 -7 0 -11 -8 -10 -17 0 -11 -6 -18 -16 -17 -10 1 -14 -4 -11 -12 3 -8
10 -11 16 -7 6 3 7 1 3 -6 -6 -9 -11 -9 -21 -1 -10 8 -15 8 -21 -1 -4 -7 -3
-9 3 -6 6 4 13 0 17 -8 3 -8 0 -14 -7 -12 -7 1 -11 -7 -10 -20 2 -17 -1 -21
-15 -16 -15 6 -16 5 -2 -12 14 -17 13 -18 -2 -12 -12 4 -15 2 -11 -9 3 -8 -1
-22 -8 -31 -12 -14 -12 -16 1 -9 8 4 7 1 -3 -7 -12 -10 -15 -17 -7 -22 8 -5 5
-12 -7 -22 -10 -8 -13 -12 -8 -10 6 3 10 -9 10 -29 0 -30 -2 -32 -12 -17 -18
24 -16 8 4 -30 12 -25 13 -29 2 -20 -12 10 -15 8 -14 -12 0 -13 4 -27 8 -31 4
-5 5 0 2 11 -6 16 -5 17 3 5 8 -10 7 -19 -1 -29 -9 -11 -9 -13 0 -8 6 4 14 3
18 -3 3 -5 -1 -10 -9 -10 -9 0 -16 -4 -16 -10 0 -5 6 -9 13 -7 6 1 11 -4 10
-10 -2 -7 2 -13 7 -13 6 0 10 -4 10 -9 0 -5 -57 11 -127 35 -115 41 -218 70
-234 66 -13 -3 -5 34 10 46 9 8 11 11 5 8 -7 -3 -14 1 -17 9 -4 9 -1 12 9 8 7
-3 14 0 14 6 0 6 -6 11 -12 11 -9 0 -9 3 1 9 8 5 12 18 8 30 -3 14 0 21 9 21
8 0 14 5 14 11 0 6 -8 8 -17 5 -15 -5 -15 -4 1 9 13 10 15 15 6 15 -9 0 -8 6
6 22 10 12 13 18 7 14 -20 -11 -15 15 5 31 15 13 15 14 1 10 -13 -4 -15 -1
-12 14 3 10 9 16 14 13 5 -3 9 -1 9 5 0 5 -5 11 -11 13 -8 3 -6 9 4 20 11 10
12 19 6 25 -7 7 -2 19 15 36 19 19 22 26 11 31 -8 3 -13 14 -12 25 0 11 5 17
9 15 5 -3 5 -10 2 -16 -4 -7 -2 -8 5 -4 6 4 9 12 5 17 -3 5 0 18 8 27 11 15
11 15 -2 5 -12 -9 -15 -7 -16 13 -1 13 2 24 8 24 5 0 6 -4 3 -10 -3 -5 -2 -10
3 -10 5 0 9 14 9 30 0 17 -4 30 -9 30 -5 0 -6 -5 -2 -12 4 -7 3 -8 -4 -4 -6 4
-9 13 -6 21 4 8 10 13 15 10 4 -3 6 5 4 17 -3 13 -10 25 -15 26 -8 3 -7 8 0
17 8 10 8 15 -1 21 -8 4 -9 3 -5 -4 4 -7 4 -12 1 -12 -3 0 -11 13 -16 30 -7
18 -16 27 -22 23 -7 -3 -9 -2 -4 2 4 5 -5 22 -20 39 -16 17 -20 24 -10 17 11
-9 17 -10 17 -2 0 11 -13 15 -37 12 -7 -1 -13 3 -13 8 0 5 -9 8 -20 6 -12 -2
-18 0 -15 6 4 5 10 7 15 4 5 -3 12 0 16 6 4 7 3 9 -4 5 -6 -3 -13 -3 -16 2 -3
5 -19 7 -35 6 -17 -1 -31 2 -31 7 0 5 -6 8 -12 6 -7 -1 -12 5 -10 13 2 8 0 11
-5 7 -4 -5 -9 -13 -9 -18 -1 -5 -2 -12 -3 -16 0 -3 -10 4 -21 17 -11 13 -20
19 -20 14 0 -6 5 -15 10 -20 7 -7 6 -11 -5 -11 -8 0 -15 4 -15 9 0 4 -4 8 -10
8 -5 0 -6 -8 -3 -17 7 -17 6 -17 -20 0 -15 10 -26 14 -25 10 3 -12 -22 -54
-30 -50 -10 6 -41 -30 -34 -39 4 -4 1 -4 -5 0 -8 4 -13 2 -13 -6 0 -9 -3 -9
-10 2 -7 11 -10 11 -10 2 0 -8 -5 -10 -12 -6 -10 6 -10 5 -1 -8 7 -8 10 -18 6
-21 -3 -4 -11 1 -18 10 -10 14 -12 13 -11 -8 1 -14 -4 -23 -11 -22 -8 2 -10
-4 -6 -15 6 -14 4 -15 -8 -5 -10 8 -19 9 -29 1 -12 -8 -11 -9 3 -4 12 4 17 2
14 -6 -2 -7 -10 -12 -17 -10 -7 2 -10 -3 -7 -12 8 -20 -3 -28 -20 -14 -10 8
-12 8 -8 -4 7 -17 -19 -43 -34 -33 -7 4 -8 -1 -4 -11 5 -13 3 -15 -7 -9 -9 6
-12 4 -8 -6 4 -10 -1 -15 -15 -16 -11 -1 -25 -7 -31 -14 -8 -9 -8 -10 2 -5 6
4 12 2 12 -5 0 -6 -8 -9 -20 -6 -11 3 -23 1 -26 -4 -3 -5 -10 -6 -16 -3 -7 4
-8 2 -4 -5 6 -9 11 -9 22 0 10 9 14 9 14 0 0 -6 -7 -14 -15 -17 -8 -4 -12 -10
-9 -15 3 -5 0 -10 -5 -10 -6 -1 -15 -2 -21 -3 -5 0 -15 -7 -22 -15 -11 -12
-10 -13 5 -8 12 5 16 3 11 -4 -3 -6 -17 -9 -30 -6 -18 3 -22 1 -14 -8 8 -9 5
-14 -10 -18 -11 -3 -24 -16 -29 -30 -5 -13 -17 -27 -25 -30 -9 -4 -16 -14 -16
-23 0 -10 -5 -14 -16 -10 -8 3 -12 2 -9 -4 3 -6 0 -10 -7 -10 -9 0 -9 -3 2
-10 13 -8 12 -10 -3 -10 -12 0 -16 -4 -11 -12 5 -8 0 -7 -11 2 -13 10 -16 11
-11 2 11 -18 -31 -62 -58 -62 -17 0 -18 -2 -6 -10 13 -9 7 -14 -12 -11 -8 1
-12 -15 -9 -31 0 -5 -6 -8 -15 -8 -9 0 -12 -5 -8 -12 6 -10 3 -9 -8 0 -15 12
-16 10 -13 -20 2 -18 1 -27 -2 -20 -2 6 -9 12 -14 12 -6 0 -7 -4 -4 -10 6 -9
-8 -14 -28 -11 -5 1 -6 -3 -2 -9 3 -6 11 -8 16 -5 5 3 6 -1 3 -10 -5 -12 -9
-13 -20 -4 -11 9 -13 6 -10 -20 2 -17 0 -28 -4 -26 -4 3 -14 -3 -21 -12 -8 -9
-9 -14 -3 -10 8 4 11 -1 10 -17 -1 -15 -6 -22 -15 -18 -11 4 -11 1 -1 -19 13
-23 12 -23 -5 -9 -17 14 -18 14 -6 -7 9 -18 9 -23 -1 -23 -11 0 -11 -2 0 -8
21 -14 24 -52 4 -53 -15 0 -15 -1 -1 -7 9 -4 30 -20 47 -37 24 -22 28 -32 20
-42 -8 -11 -7 -12 7 -7 13 5 16 4 11 -4 -4 -7 -3 -12 2 -12 6 0 13 7 16 16 4
10 2 13 -6 8 -7 -4 -8 -3 -4 4 10 17 29 15 23 -2 -3 -8 2 -20 11 -28 15 -12
16 -11 4 4 -8 10 -9 19 -3 22 5 3 11 1 13 -6 5 -14 38 -20 38 -6 0 6 -7 8 -15
4 -23 -8 -17 7 9 26 18 13 23 13 23 3 0 -8 -5 -11 -10 -8 -6 4 -7 1 -2 -7 6
-10 11 -10 20 3 7 9 16 13 20 9 5 -4 5 1 2 11 -6 15 -4 16 16 6 20 -11 21 -11
8 4 -7 10 -12 17 -10 18 25 5 51 7 42 3 -9 -4 -8 -13 2 -37 7 -18 15 -50 19
-72 11 -75 16 -94 63 -222 44 -123 53 -173 39 -238 -3 -11 -5 -35 -5 -53 -1
-21 -5 -31 -12 -26 -8 5 -8 1 0 -14 8 -15 6 -23 -10 -38 -13 -12 -16 -21 -9
-28 14 -14 13 -29 -2 -20 -8 5 -7 0 2 -11 14 -17 13 -18 -2 -12 -10 3 -20 2
-23 -4 -4 -5 -1 -8 6 -7 17 4 18 -21 2 -52 -7 -14 -13 -31 -13 -37 0 -7 -5
-13 -11 -13 -5 0 -7 5 -3 12 4 6 3 8 -4 4 -7 -4 -8 -17 -2 -35 7 -25 6 -29 -8
-24 -12 5 -14 2 -8 -12 4 -11 0 -25 -11 -38 -10 -11 -13 -18 -7 -14 6 4 10 -6
9 -25 -1 -21 -8 -34 -21 -39 -18 -7 -18 -8 1 -8 17 -1 17 -3 5 -11 -12 -8 -12
-10 5 -11 11 0 15 -3 8 -6 -9 -3 -6 -11 8 -26 11 -12 17 -28 14 -36 -5 -12 -3
-12 12 0 9 8 14 9 10 2 -4 -6 -3 -15 3 -18 8 -5 7 -11 -1 -21 -10 -12 -10 -15
2 -12 10 2 13 -8 12 -42 -5 -106 -4 -453 2 -540 8 -128 14 -208 20 -250 2 -19
7 -55 10 -80 5 -40 14 -95 31 -185 11 -65 46 -194 73 -272 16 -45 26 -85 22
-88 -3 -4 -13 -27 -22 -53 l-15 -46 -110 -2 c-212 -3 -334 -24 -334 -57 0 -24
54 -96 145 -195 56 -61 82 -86 147 -143 26 -23 27 -26 16 -76 -7 -38 -15 -53
-27 -53 -9 0 -12 -3 -6 -8 6 -4 11 -14 13 -22 1 -9 -7 -5 -20 10 -15 18 -19
20 -15 7 5 -14 2 -20 -13 -24 -11 -3 -17 -9 -15 -14 3 -4 -4 -6 -16 -4 -14 3
-19 0 -16 -8 3 -8 -3 -14 -14 -14 -11 -1 -17 2 -14 8 4 5 1 9 -4 9 -6 0 -11
-10 -11 -22 l-1 -23 -13 24 c-11 20 -14 21 -19 7 -5 -12 -3 -15 6 -10 6 4 8 3
4 -1 -14 -15 -39 -15 -33 1 3 8 3 14 0 14 -2 0 -9 -10 -14 -22 -7 -18 -9 -19
-9 -5 -1 21 -21 23 -21 2 0 -12 -4 -13 -19 -5 -25 13 -41 13 -18 -1 22 -13 13
-29 -13 -24 -12 2 -17 -1 -14 -10 3 -7 0 -16 -7 -21 -8 -4 -10 -3 -5 4 4 7 3
12 -1 12 -5 0 -13 -10 -18 -22 -6 -13 -17 -22 -24 -20 -9 2 -11 -3 -7 -14 5
-14 4 -15 -9 -4 -13 11 -14 10 -9 -5 6 -14 4 -16 -6 -10 -10 6 -12 4 -6 -10 5
-14 3 -15 -6 -8 -9 8 -19 5 -33 -10 l-20 -20 25 12 c21 11 20 8 -7 -17 -18
-16 -29 -33 -25 -38 3 -5 0 -3 -8 4 -8 6 -19 12 -24 12 -6 0 -5 -4 3 -9 10 -7
11 -12 1 -27 -7 -13 -10 -14 -7 -3 3 9 -1 16 -9 16 -7 0 -10 -5 -7 -10 3 -5 2
-12 -3 -16 -5 -3 -14 -15 -21 -26 -6 -11 -16 -19 -22 -18 -6 2 -11 -4 -11 -13
0 -9 5 -12 12 -8 7 5 8 3 4 -5 -6 -9 -13 -8 -28 6 -11 9 -18 13 -17 8 4 -17
-13 -45 -27 -45 -8 0 -14 5 -14 11 0 6 -8 9 -17 7 -10 -2 -26 6 -36 17 -10 11
-16 14 -12 8 3 -7 1 -13 -4 -13 -6 0 -11 8 -11 18 0 14 -2 15 -10 2 -7 -11
-10 -11 -10 -2 0 8 -5 10 -13 5 -19 -12 -36 -12 -44 -1 -4 7 -1 8 7 3 9 -6 11
-4 5 5 -6 10 -11 10 -20 -4 -12 -15 -13 -15 -18 4 -6 23 -37 17 -37 -7 0 -8
-4 -12 -10 -8 -5 3 -7 13 -4 23 4 10 3 13 -3 6 -4 -6 -27 -10 -50 -9 -23 0
-39 -3 -37 -7 3 -5 10 -5 16 -2 7 4 8 2 4 -4 -5 -9 -13 -9 -29 0 -12 6 -23 11
-24 10 -11 -7 -23 0 -17 11 9 13 -26 -11 -38 -28 -7 -9 -12 7 -9 28 0 4 -4 7
-10 7 -6 0 -8 -9 -4 -22 7 -22 6 -22 -8 -4 -14 19 -14 19 -25 0 -6 -10 -12
-14 -12 -8 0 7 -7 15 -16 18 -9 3 -12 2 -9 -5 4 -6 -2 -8 -17 -4 -13 4 -32 7
-41 9 -9 1 -19 5 -23 8 -8 9 -34 -2 -34 -14 0 -6 6 -6 14 1 10 8 16 9 21 1 3
-6 11 -7 17 -4 6 4 8 3 5 -2 -5 -8 -50 -10 -67 -4 -3 1 -9 2 -13 1 -5 -1 -5 4
-1 10 5 9 2 10 -10 6 -11 -5 -15 -3 -10 5 5 8 2 9 -11 4 -15 -5 -16 -4 -5 9
10 12 10 15 -1 15 -10 1 -8 4 4 11 9 5 17 15 17 22 0 8 -3 8 -9 -1 -7 -11 -9
-11 -14 2 -4 9 -2 16 3 16 6 0 10 5 10 11 0 5 -3 8 -8 5 -15 -9 -8 148 7 160
11 9 12 12 1 19 -9 6 -11 4 -5 -6 5 -8 4 -11 -1 -6 -12 11 -13 77 -1 70 6 -4
7 -1 1 8 -13 21 -11 130 2 125 11 -4 12 22 1 41 -4 6 0 14 9 17 8 3 13 2 10
-3 -3 -5 1 -12 10 -15 8 -3 12 -2 9 4 -3 6 0 10 7 10 9 0 9 3 -2 10 -12 7 -10
9 7 8 14 -2 19 -7 15 -18 -5 -13 -3 -13 11 -1 9 7 14 18 10 25 -4 6 1 4 12 -4
10 -8 19 -15 20 -15 1 0 10 7 21 15 17 13 18 13 7 0 -10 -13 -9 -16 7 -16 12
0 17 6 14 19 -2 15 0 16 10 8 10 -9 15 -8 20 5 3 8 12 14 19 11 6 -2 20 12 29
32 10 20 17 31 18 25 0 -15 27 -13 27 2 0 7 -4 11 -9 8 -4 -3 -8 2 -8 11 0 12
5 15 16 11 13 -5 14 -3 7 6 -5 7 -9 22 -9 33 1 11 -3 23 -9 27 -6 4 -2 8 8 8
9 0 17 4 17 10 0 5 -7 7 -15 4 -8 -4 -15 -2 -15 4 0 6 6 13 13 15 8 4 7 6 -4
6 -15 1 -66 51 -51 51 4 0 -1 5 -11 11 -9 5 -22 7 -29 3 -7 -4 -8 -3 -4 4 5 8
0 12 -13 12 -12 0 -21 6 -21 13 0 8 -4 7 -10 -3 -5 -8 -10 -10 -10 -4 0 7 -7
15 -16 18 -13 5 -14 3 -6 -7 9 -10 6 -13 -14 -12 -14 0 -29 7 -34 15 -6 8 -10
10 -10 3 0 -18 -27 -9 -50 17 -16 19 -18 26 -7 38 9 13 9 14 0 8 -7 -4 -13 -2
-13 3 0 6 8 11 18 11 14 0 14 2 3 9 -19 12 -22 51 -4 51 7 0 13 5 13 11 0 5
-4 8 -9 4 -5 -3 -12 -1 -16 5 -3 5 -1 10 4 10 6 0 11 5 11 11 0 5 -3 8 -8 6
-4 -3 -7 26 -7 64 0 55 3 68 14 64 11 -5 12 -3 1 10 -15 18 -22 155 -8 155 5
0 6 -5 2 -12 -4 -7 -3 -8 5 -4 9 6 9 11 0 23 -15 17 -20 53 -7 53 4 0 7 3 7 8
-1 4 -1 14 0 22 1 13 2 13 12 0 8 -12 10 -10 5 10 l-5 25 20 -25 20 -25 -6 25
c-6 24 -5 24 9 6 14 -17 16 -18 16 -3 0 23 20 22 21 0 0 -15 2 -15 7 -3 8 17
32 25 32 11 0 -8 21 -8 40 -1 3 1 9 2 13 1 5 -1 6 3 2 9 -5 8 -11 8 -20 0 -10
-8 -15 -8 -21 2 -4 7 -4 10 1 6 4 -4 14 -3 22 3 7 6 13 8 13 4 0 -4 12 0 26
10 21 14 28 14 42 3 11 -9 14 -10 8 -1 -12 21 -16 54 -5 48 5 -4 7 -10 4 -15
-3 -5 0 -12 6 -16 7 -4 9 -3 5 4 -3 6 2 16 11 22 17 11 17 11 0 6 -19 -6 -24
18 -5 30 7 4 8 3 4 -4 -4 -7 -5 -12 -2 -12 3 0 10 9 16 20 8 15 8 18 -3 14
-13 -5 -16 15 -17 99 0 17 -4 26 -10 22 -5 -3 -10 1 -10 9 0 9 -17 23 -40 32
-22 9 -37 20 -34 25 3 5 0 9 -6 9 -6 0 -8 5 -4 12 4 7 3 8 -5 4 -6 -4 -9 -10
-7 -14 2 -4 -7 -7 -20 -7 -17 0 -23 4 -19 14 4 10 -1 9 -15 -4 -20 -18 -21
-18 -14 0 5 12 4 16 -4 12 -6 -4 -12 -2 -15 5 -2 7 -3 5 -2 -4 4 -27 -10 -30
-35 -8 -12 11 -26 17 -30 15 -4 -3 -10 2 -13 10 -4 9 -1 12 7 9 7 -3 13 2 13
10 0 8 -5 12 -11 10 -7 -3 -12 9 -12 26 -1 16 3 30 8 30 5 0 6 -4 3 -10 -3 -5
-1 -10 4 -10 14 0 14 13 -1 28 -13 13 -18 82 -6 82 4 0 8 5 8 11 0 5 -3 8 -8
5 -15 -9 -8 148 7 160 11 9 12 12 1 19 -9 6 -11 4 -5 -6 5 -8 4 -11 -1 -6 -13
12 -13 77 0 70 6 -4 6 0 -1 8 -13 16 -8 65 8 85 7 8 6 15 -2 20 -8 5 -10 3 -4
-7 7 -12 6 -12 -6 0 -10 10 -11 15 -2 18 7 2 10 10 7 18 -3 7 0 16 5 20 6 3 9
11 6 16 -3 5 1 6 9 3 9 -3 13 -11 10 -18 -3 -6 1 -4 8 6 11 12 18 14 32 6 13
-7 17 -7 12 0 -3 5 1 13 10 16 8 3 13 2 10 -3 -3 -5 1 -12 10 -15 8 -3 12 -2
9 3 -3 5 -1 12 5 16 5 3 10 1 10 -4 0 -6 5 -11 11 -11 5 0 7 5 3 12 -4 6 -3 8
3 5 6 -4 22 3 37 14 14 11 26 17 26 13 0 -4 8 0 18 9 14 13 21 14 30 5 8 -8 9
-5 5 13 -6 22 -5 23 13 9 18 -14 18 -14 5 3 -15 19 -23 60 -11 52 8 -5 8 65 0
80 -3 6 -5 24 -5 41 0 17 -4 31 -11 31 -7 0 -10 -7 -7 -16 4 -14 4 -14 -6 -1
-6 8 -8 24 -6 35 3 11 2 14 -1 8 -3 -7 -15 -13 -27 -12 -21 0 -21 1 -2 9 18 8
17 9 -7 9 -16 1 -31 0 -34 -1 -3 -2 -12 8 -20 22 -14 24 -15 24 -11 2 4 -15 1
-20 -6 -15 -7 4 -28 8 -47 10 -49 3 -69 8 -81 20 -14 14 -21 83 -9 83 5 0 7
-9 5 -20 -2 -11 0 -18 5 -15 10 6 8 24 -4 44 -12 19 -15 81 -4 81 4 0 8 5 8
11 0 5 -3 8 -7 6 -5 -3 -8 26 -8 64 0 55 3 68 14 64 11 -5 12 -3 1 10 -15 18
-22 155 -8 155 4 0 8 -5 8 -12 0 -6 3 -8 6 -5 4 4 1 14 -6 23 -17 20 -21 56
-5 50 6 -2 12 2 12 10 0 7 -5 10 -11 7 -6 -4 -2 3 8 15 20 23 32 30 21 12 -3
-5 -2 -10 4 -10 5 0 12 6 14 13 4 8 6 8 6 -2 1 -11 5 -10 17 5 8 10 13 13 9 7
-4 -8 0 -13 10 -13 9 0 13 5 9 11 -3 6 5 3 20 -6 24 -16 26 -16 20 -1 -3 9 -1
16 5 16 6 0 11 -5 11 -11 0 -6 7 -3 16 5 19 19 49 22 38 4 -5 -9 -2 -9 9 1 18
15 23 26 7 16 -5 -3 -10 -1 -10 4 0 6 7 11 15 11 8 0 15 5 15 11 0 5 -5 7 -12
3 -7 -5 -8 -3 -3 5 5 9 10 10 18 2 15 -15 24 -14 24 4 0 8 -4 12 -9 9 -4 -3
-8 0 -8 5 0 6 6 11 14 11 8 0 18 5 22 12 4 7 3 8 -4 4 -7 -4 -12 -3 -12 2 0 6
8 13 18 17 15 6 15 8 1 18 -17 13 -22 47 -6 47 5 0 7 -6 4 -13 -3 -8 1 -14 8
-14 18 0 7 25 -16 38 -11 5 -17 14 -14 20 10 14 -62 82 -77 73 -7 -4 -10 -4
-6 1 4 4 -2 16 -14 26 -25 22 -35 25 -19 5 9 -11 7 -13 -11 -11 -13 2 -34 8
-49 13 -16 6 -31 7 -42 1 -20 -12 -22 1 -4 21 6 8 2 6 -10 -4 -23 -19 -32 -11
-13 12 7 9 7 9 -2 2 -16 -14 -25 -13 -31 4 -4 11 -1 13 11 10 15 -5 15 -4 2 8
-17 15 -24 68 -9 68 6 0 7 -5 3 -12 -4 -7 -3 -8 5 -4 9 6 9 11 0 22 -14 17
-19 84 -7 84 4 0 8 5 8 11 0 5 -3 8 -8 5 -15 -9 -8 148 7 160 11 9 12 12 1 19
-9 6 -11 4 -5 -6 5 -8 4 -11 -1 -6 -12 11 -13 77 -1 70 6 -4 7 -1 1 8 -15 24
-12 57 6 52 13 -4 13 -3 0 9 -16 14 -24 61 -9 52 12 -7 11 3 -1 25 -7 14 -4
23 12 37 21 19 21 19 14 0 -5 -16 -4 -17 9 -6 8 7 13 15 10 19 -5 9 74 6 98
-4 14 -6 16 -3 11 11 -6 17 -5 17 10 -1 10 -11 15 -14 11 -8 -4 9 -1 11 9 7 9
-3 13 -11 10 -18 -3 -6 2 -2 10 8 15 18 16 18 16 2 0 -9 5 -14 10 -11 6 4 8
12 4 18 -3 7 1 4 9 -6 14 -17 15 -16 20 4 l6 21 31 -22 c24 -17 34 -20 43 -11
9 9 8 11 -5 6 -10 -4 -18 -3 -18 3 0 6 8 9 18 7 9 -2 21 -4 25 -4 5 -1 5 -5 2
-11 -3 -5 -1 -10 4 -10 6 0 11 6 11 14 0 8 5 18 12 22 7 4 8 3 4 -5 -5 -8 7
-10 42 -8 43 2 50 0 47 -15 -6 -27 4 -22 15 8 l10 25 31 -22 c23 -16 33 -19
42 -10 9 9 8 11 -5 6 -10 -4 -18 -3 -18 3 0 6 8 9 18 7 9 -2 21 -4 25 -4 5 -1
5 -5 2 -11 -3 -5 -1 -10 4 -10 6 0 11 6 11 14 0 8 5 18 12 22 7 4 8 3 4 -5 -5
-8 7 -10 42 -8 44 2 50 0 47 -16 -2 -9 0 -15 6 -12 5 4 9 12 9 20 0 16 34 12
56 -6 12 -9 18 -9 27 0 9 10 8 11 -5 6 -18 -7 -26 9 -10 19 10 6 43 -19 35
-27 -3 -4 -1 -7 5 -7 7 0 12 6 12 13 0 8 18 12 59 12 47 0 58 -3 54 -15 -2 -8
3 -4 11 10 9 14 15 19 16 11 0 -11 4 -10 16 5 8 10 13 14 10 8 -3 -7 4 -10 20
-8 33 3 39 10 19 18 -11 4 -14 2 -9 -6 4 -7 3 -8 -5 -4 -16 10 -4 26 14 19 8
-3 15 0 15 7 0 6 5 8 12 4 8 -5 9 -2 4 11 -5 14 -4 16 7 7 14 -12 14 -12 20
82 1 19 6 32 10 29 5 -3 6 -11 4 -17 -3 -7 1 -13 8 -13 10 0 11 5 5 17 -5 9
-8 25 -7 35 1 12 -3 19 -11 17 -15 -3 -12 28 3 41 6 5 4 7 -5 4 -8 -2 -15 -9
-15 -15 0 -5 -2 -12 -5 -14 -3 -2 -4 -1 -3 1 1 2 -2 13 -8 24 -9 15 -8 18 3
11 10 -6 11 -5 1 8 -7 8 -11 17 -8 19 2 3 -11 4 -30 4 -19 -1 -32 2 -29 7 3 4
0 8 -5 8 -6 0 -11 8 -12 18 0 14 -2 14 -7 2 -4 -8 -17 -16 -30 -16 -12 -1 -20
1 -17 4 2 3 0 11 -6 19 -9 10 -15 10 -25 2 -11 -9 -18 -8 -29 1 -9 7 -18 10
-22 6 -3 -3 -1 -6 5 -6 7 0 12 -4 12 -9 0 -4 -11 -6 -25 -3 -14 2 -22 8 -19
13 3 5 0 9 -5 9 -6 0 -11 -6 -11 -14 0 -8 -5 -18 -12 -22 -7 -4 -8 -3 -4 5 5
8 -7 10 -42 8 -43 -2 -50 0 -47 15 6 27 -4 22 -15 -8 l-10 -25 -31 22 c-23 16
-33 19 -42 10 -9 -9 -8 -11 6 -6 9 4 17 3 17 -3 0 -6 -8 -9 -17 -7 -10 2 -22
4 -26 4 -5 1 -5 6 -2 11 3 6 1 10 -4 10 -6 0 -11 -6 -11 -14 0 -8 -5 -18 -12
-22 -7 -4 -8 -3 -4 5 5 8 -7 10 -42 8 -44 -2 -50 0 -47 16 2 9 0 15 -6 12 -5
-4 -9 -12 -9 -20 0 -16 -34 -12 -56 6 -11 9 -13 9 -9 -2 4 -12 -23 -14 -162
-12 -209 2 -195 1 -188 16 4 6 -1 3 -9 -7 -15 -18 -16 -18 -16 -2 0 9 -4 15
-10 11 -5 -3 -7 -13 -4 -23 3 -9 -2 -6 -10 8 -11 19 -15 21 -16 8 0 -19 -32
-17 -56 3 -12 9 -18 9 -27 0 -9 -10 -8 -11 6 -6 10 5 17 2 17 -6 0 -7 -3 -9
-7 -6 -3 4 -13 1 -21 -6 -13 -9 -14 -9 -8 1 4 7 2 12 -4 12 -6 0 -8 5 -5 10 3
6 1 10 -4 10 -6 0 -11 -6 -11 -14 0 -9 -7 -12 -20 -9 -13 3 -20 0 -20 -8 0
-11 -2 -11 -10 1 -5 8 -10 11 -10 7 0 -4 -10 -2 -23 4 -19 11 -20 10 -10 -2
10 -12 8 -15 -10 -16 -12 -1 -25 3 -30 10 -6 8 -7 4 -4 -10 5 -24 -7 -40 -18
-23 -4 6 -13 5 -25 -2 -17 -11 -17 -13 -2 -26 9 -7 12 -11 5 -8 -6 4 -14 -3
-18 -14 -4 -11 -10 -18 -14 -16 -4 3 -8 -5 -8 -17 -2 -17 0 -19 7 -7 5 8 10
12 10 7 0 -10 -23 -50 -35 -60 -6 -5 -3 -7 7 -4 9 3 19 0 22 -8 3 -10 0 -12
-11 -8 -12 5 -14 3 -7 -8 15 -24 13 -39 -4 -40 -15 0 -15 -1 -2 -7 17 -8 21
-82 5 -94 -7 -5 -6 -8 1 -8 5 0 10 -11 10 -24 0 -14 -4 -22 -8 -20 -5 3 -6 9
-3 14 3 4 -3 14 -12 21 -15 12 -16 12 -8 -1 14 -22 15 -43 5 -55 -7 -8 -5 -12
5 -12 8 0 11 5 8 11 -4 6 1 5 10 -3 13 -10 14 -17 6 -27 -6 -7 -7 -19 -3 -25
4 -8 3 -9 -4 -5 -7 4 -12 3 -12 -3 0 -5 6 -12 13 -15 6 -4 1 -4 -13 -2 -24 5
-24 4 -6 -9 17 -13 20 -28 20 -110 1 -70 -2 -95 -11 -95 -7 0 -13 -5 -13 -11
0 -5 4 -8 9 -4 5 3 12 1 16 -5 3 -5 1 -10 -4 -10 -6 0 -11 -5 -11 -11 0 -5 3
-8 8 -6 15 10 8 -78 -8 -91 -13 -12 -13 -13 0 -9 10 3 15 -3 15 -19 0 -15 -5
-22 -12 -20 -7 3 -10 -1 -6 -9 3 -8 9 -13 13 -10 5 3 5 -8 0 -24 -6 -20 -5
-32 3 -36 7 -3 1 -3 -13 -1 -24 5 -24 4 -6 -9 15 -12 19 -28 20 -80 1 -52 -2
-64 -13 -60 -12 5 -12 3 0 -11 22 -27 20 -95 -5 -117 -21 -18 -21 -18 0 -8 17
8 20 7 20 -12 -1 -12 -5 -25 -11 -29 -7 -5 -6 -8 1 -8 5 0 10 -11 10 -24 0
-14 -4 -22 -8 -20 -5 3 -6 9 -3 14 3 4 -3 14 -12 21 -15 12 -16 12 -8 -1 14
-22 15 -43 5 -55 -7 -8 -5 -12 5 -12 8 0 11 5 8 11 -4 6 1 5 10 -3 13 -10 14
-17 6 -27 -6 -7 -7 -19 -3 -25 4 -8 3 -9 -4 -5 -7 4 -12 3 -12 -3 0 -5 6 -12
13 -15 6 -4 1 -4 -13 -2 -24 5 -24 4 -6 -9 17 -13 20 -28 20 -110 1 -70 -2
-95 -11 -95 -7 0 -13 -5 -13 -11 0 -5 4 -8 9 -4 5 3 12 1 16 -5 3 -5 1 -10 -4
-10 -6 0 -11 -5 -11 -11 0 -5 3 -8 8 -6 15 10 8 -78 -8 -91 -13 -12 -13 -13 0
-9 10 3 15 -3 15 -19 0 -15 -5 -22 -12 -20 -7 3 -10 -1 -6 -9 3 -8 9 -13 13
-10 5 3 5 -8 0 -24 -6 -20 -5 -32 3 -36 7 -3 1 -3 -13 -1 -24 5 -24 4 -6 -9
15 -12 19 -28 20 -80 1 -52 -2 -64 -13 -60 -12 5 -12 3 0 -11 22 -27 20 -95
-5 -117 -21 -18 -21 -18 0 -8 17 8 20 7 20 -12 -1 -12 -5 -25 -11 -29 -7 -5
-6 -8 1 -8 5 0 10 -11 10 -24 0 -14 -4 -22 -8 -20 -5 3 -6 9 -3 14 3 4 -3 14
-12 21 -15 12 -16 12 -8 -1 14 -22 15 -43 5 -55 -7 -8 -5 -12 5 -12 8 0 11 5
8 11 -4 6 1 5 10 -3 13 -10 14 -17 6 -27 -6 -7 -7 -19 -3 -25 4 -8 3 -9 -4 -5
-7 4 -12 3 -12 -3 0 -5 6 -12 13 -15 6 -4 1 -4 -13 -2 -24 5 -24 4 -6 -9 17
-13 20 -28 20 -110 1 -70 -2 -95 -11 -95 -7 0 -13 -5 -13 -11 0 -5 4 -8 9 -4
5 3 12 1 16 -5 3 -5 1 -10 -4 -10 -6 0 -11 -5 -11 -11 0 -5 3 -8 8 -6 15 10 8
-78 -8 -91 -13 -12 -13 -13 0 -9 10 3 15 -3 15 -19 0 -15 -5 -22 -12 -20 -7 3
-10 -1 -6 -9 3 -8 9 -13 13 -10 5 3 5 -8 0 -24 -6 -20 -5 -32 3 -36 7 -3 1 -3
-13 -1 -24 5 -24 4 -6 -9 15 -12 19 -28 20 -80 1 -52 -2 -64 -13 -60 -12 5
-12 3 0 -11 22 -27 20 -95 -5 -117 -21 -18 -21 -18 0 -8 17 8 20 7 20 -12 -1
-12 -5 -25 -11 -29 -7 -5 -6 -8 1 -8 5 0 10 -11 10 -24 0 -14 -4 -22 -8 -20
-5 3 -6 9 -3 14 3 4 -3 14 -12 21 -15 12 -16 12 -8 -1 14 -22 15 -43 5 -55 -7
-8 -5 -12 5 -12 8 0 11 5 8 11 -4 6 1 5 10 -3 13 -10 14 -17 6 -27 -6 -7 -7
-19 -3 -25 4 -8 3 -9 -4 -5 -7 4 -12 3 -12 -3 0 -5 6 -12 13 -15 6 -4 1 -4
-13 -2 -24 5 -24 4 -6 -9 17 -13 20 -28 20 -110 1 -70 -2 -95 -11 -95 -7 0
-13 -5 -13 -11 0 -5 4 -8 9 -4 5 3 12 1 16 -5 3 -5 1 -10 -4 -10 -6 0 -11 -5
-11 -11 0 -5 3 -8 8 -6 15 10 8 -78 -8 -91 -13 -12 -13 -13 0 -9 10 3 15 -3
15 -19 0 -15 -5 -22 -12 -20 -7 3 -10 -1 -6 -9 3 -8 9 -13 13 -10 5 3 5 -8 0
-24 -6 -20 -5 -32 3 -36 7 -3 1 -3 -13 -1 -24 5 -24 4 -6 -9 15 -12 19 -28 20
-80 1 -52 -2 -64 -13 -60 -12 5 -12 3 0 -11 22 -27 20 -95 -5 -117 -21 -18
-21 -18 0 -8 17 8 20 7 20 -12 -1 -12 -5 -25 -11 -29 -7 -5 -6 -8 1 -8 5 0 10
-11 10 -24 0 -14 -4 -22 -8 -20 -5 3 -6 9 -3 14 3 4 -3 14 -12 21 -15 12 -16
12 -8 -1 14 -22 15 -43 5 -55 -7 -8 -5 -12 5 -12 8 0 11 5 8 11 -4 6 1 5 10
-3 13 -10 14 -17 6 -27 -6 -7 -7 -19 -3 -25 4 -8 3 -9 -4 -5 -7 4 -12 3 -12
-3 0 -5 6 -12 13 -15 6 -4 1 -4 -13 -2 -24 5 -24 4 -6 -9 17 -13 20 -28 20
-110 1 -70 -2 -95 -11 -95 -7 0 -13 -5 -13 -11 0 -5 4 -8 9 -4 5 3 12 1 16 -5
3 -5 1 -10 -4 -10 -6 0 -11 -5 -11 -11 0 -5 3 -8 8 -6 15 10 8 -78 -8 -91 -13
-12 -13 -13 0 -9 10 3 15 -3 15 -19 0 -15 -5 -22 -12 -20 -7 3 -10 -1 -6 -9 3
-8 9 -13 13 -10 5 3 5 -8 0 -24 -6 -20 -5 -32 3 -36 7 -3 1 -3 -13 -1 -24 5
-24 4 -6 -9 15 -12 19 -28 20 -80 1 -52 -2 -64 -13 -60 -12 5 -12 3 0 -11 22
-27 20 -95 -5 -117 -21 -18 -21 -18 0 -8 17 8 20 7 20 -12 -1 -12 -5 -25 -11
-29 -7 -5 -6 -8 1 -8 5 0 10 -11 10 -24 0 -14 -4 -22 -8 -20 -5 3 -6 9 -3 14
3 4 -3 14 -12 21 -15 12 -16 12 -8 -1 14 -22 15 -43 5 -55 -7 -8 -5 -12 5 -12
8 0 11 5 8 11 -4 6 1 5 10 -3 13 -10 14 -17 6 -27 -6 -7 -7 -19 -3 -25 4 -8 3
-9 -4 -5 -7 4 -12 3 -12 -3 0 -5 6 -12 13 -15 6 -4 1 -4 -13 -2 -24 5 -24 4
-6 -9 17 -13 20 -28 20 -110 1 -70 -2 -95 -11 -95 -7 0 -13 -5 -13 -11 0 -5 4
-8 9 -4 5 3 12 1 16 -5 3 -5 1 -10 -4 -10 -6 0 -11 -5 -11 -11 0 -5 3 -8 8 -6
15 10 8 -78 -8 -91 -13 -12 -13 -13 0 -9 10 3 15 -3 15 -19 0 -15 -5 -22 -12
-20 -7 3 -10 -1 -6 -9 3 -8 9 -13 13 -10 5 3 5 -8 0 -24 -6 -20 -5 -32 3 -36
7 -3 1 -3 -13 -1 -24 5 -24 4 -6 -9 15 -12 19 -28 20 -80 1 -52 -2 -64 -13
-60 -12 5 -12 3 0 -11 22 -27 20 -95 -5 -117 -21 -18 -21 -18 0 -8 17 8 20 7
20 -12 -1 -12 -5 -25 -11 -29 -7 -5 -6 -8 1 -8 5 0 10 -11 10 -24 0 -14 -4
-22 -8 -20 -5 3 -6 9 -3 14 3 4 -3 14 -12 21 -15 12 -16 12 -8 -1 14 -22 15
-43 5 -55 -7 -8 -5 -12 5 -12 8 0 11 5 8 11 -4 6 1 5 10 -3 13 -10 14 -17 6
-27 -6 -7 -7 -19 -3 -25 4 -8 3 -9 -4 -5 -7 4 -12 3 -12 -3 0 -5 6 -12 13 -15
6 -4 1 -4 -13 -2 -24 5 -24 4 -6 -9 17 -13 20 -28 20 -110 1 -70 -2 -95 -11
-95 -7 0 -13 -5 -13 -11 0 -5 4 -8 9 -4 5 3 12 1 16 -5 3 -5 1 -10 -4 -10 -6
0 -11 -5 -11 -11 0 -5 3 -8 8 -6 15 10 8 -78 -8 -91 -13 -12 -13 -13 0 -9 10
3 15 -3 15 -19 0 -15 -5 -22 -12 -20 -7 3 -10 -1 -6 -9 3 -8 9 -13 13 -10 5 3
5 -8 0 -24 -6 -20 -5 -32 3 -36 7 -3 1 -3 -13 -1 -24 5 -24 4 -6 -9 15 -12 19
-28 20 -80 1 -52 -2 -64 -13 -60 -12 5 -12 3 0 -11 22 -27 20 -95 -5 -117 -21
-18 -21 -18 0 -8 17 8 20 7 20 -12 -1 -12 -5 -25 -11 -29 -7 -5 -6 -8 1 -8 5
0 10 -11 10 -24 0 -14 -4 -22 -8 -20 -5 3 -6 9 -3 14 3 4 -3 14 -12 21 -15 12
-16 12 -8 -1 14 -22 15 -43 5 -55 -7 -8 -5 -12 5 -12 8 0 11 5 8 11 -4 6 1 5
10 -3 13 -10 14 -17 6 -27 -6 -7 -7 -19 -3 -25 4 -8 3 -9 -4 -5 -7 4 -12 3
-12 -3 0 -5 6 -12 12 -15 7 -4 2 -4 -12 -2 -24 5 -24 4 -6 -9 17 -13 20 -28
20 -110 1 -70 -2 -95 -11 -95 -7 0 -13 -5 -13 -11 0 -5 4 -8 9 -4 5 3 12 1 16
-5 3 -5 1 -10 -4 -10 -6 0 -11 -5 -11 -11 0 -5 3 -8 8 -6 15 10 8 -78 -8 -91
-13 -12 -13 -13 0 -9 10 3 15 -3 15 -19 0 -15 -5 -22 -12 -20 -7 3 -10 -1 -6
-9 3 -8 9 -13 13 -10 5 3 5 -8 0 -24 -6 -20 -5 -32 3 -36 7 -3 1 -3 -13 -1
-24 5 -24 4 -6 -9 15 -12 19 -28 20 -80 1 -52 -2 -64 -13 -60 -12 5 -12 3 0
-11 22 -27 20 -95 -5 -117 -21 -18 -21 -18 0 -8 17 8 20 7 20 -12 -1 -12 -5
-25 -11 -29 -7 -5 -6 -8 1 -8 5 0 10 -11 10 -24 0 -14 -4 -22 -8 -20 -5 3 -6
9 -3 14 3 4 -3 14 -12 21 -15 12 -16 12 -8 -1 14 -22 15 -43 5 -55 -7 -8 -5
-12 5 -12 8 0 11 5 8 11 -4 6 1 5 10 -3 13 -10 14 -17 6 -27 -6 -7 -7 -19 -3
-25 4 -8 3 -9 -4 -5 -7 4 -12 3 -12 -3 0 -5 6 -12 12 -15 7 -4 2 -4 -12 -2
-24 5 -24 4 -6 -9 17 -13 20 -28 20 -110 1 -70 -2 -95 -11 -95 -7 0 -13 -5
-13 -11 0 -5 4 -8 9 -4 5 3 12 1 16 -5 3 -5 1 -10 -4 -10 -6 0 -11 -5 -11 -11
0 -5 3 -8 8 -6 15 10 8 -78 -8 -91 -13 -12 -13 -13 0 -9 10 3 15 -3 15 -19 0
-15 -5 -22 -12 -20 -7 3 -10 -1 -6 -9 3 -8 9 -13 13 -10 5 3 5 -8 0 -24 -6
-20 -5 -32 3 -36 7 -3 1 -3 -13 -1 -24 5 -24 4 -6 -9 15 -12 19 -28 20 -80 1
-52 -2 -64 -13 -60 -12 5 -12 3 0 -11 22 -27 20 -95 -5 -117 -21 -18 -21 -18
0 -8 17 8 20 7 20 -12 -1 -12 -5 -25 -11 -29 -7 -5 -6 -8 1 -8 5 0 10 -11 10
-24 0 -14 -4 -22 -8 -20 -5 3 -6 9 -3 14 3 4 -3 14 -12 21 -15 12 -16 12 -8
-1 14 -22 15 -43 5 -55 -7 -8 -5 -12 5 -12 8 0 11 5 8 11 -4 6 1 5 10 -3 13
-10 14 -17 6 -27 -6 -7 -7 -19 -3 -25 4 -8 3 -9 -4 -5 -7 4 -12 3 -12 -3 0 -5
6 -12 12 -15 7 -4 2 -4 -12 -2 -24 5 -24 4 -6 -9 17 -13 20 -28 20 -110 1 -70
-2 -95 -11 -95 -7 0 -13 -5 -13 -11 0 -5 4 -8 9 -4 5 3 12 1 16 -5 3 -5 1 -10
-4 -10 -6 0 -11 -5 -11 -11 0 -5 3 -8 8 -6 15 10 8 -78 -8 -91 -13 -12 -13
-13 0 -9 10 3 15 -3 15 -19 0 -15 -5 -22 -12 -20 -7 3 -10 -1 -6 -9 3 -8 8
-13 12 -11 8 5 7 -97 -2 -111 -5 -8 40 -12 169 -13 139 -1 175 2 172 12 -3 7
2 18 10 24 12 9 12 13 2 19 -9 6 -11 4 -5 -5 5 -8 4 -11 -2 -7 -10 6 -9 104 1
115 3 2 1 13 -5 23 -7 14 -5 23 11 39 11 11 25 18 30 15 4 -3 10 -2 13 2 2 5
3 3 1 -3 -1 -6 8 -10 19 -9 12 1 29 -3 37 -9 13 -9 13 -9 2 6 -9 11 -10 18 -2
23 5 3 10 1 10 -4 0 -6 7 -11 16 -11 9 0 12 5 8 13 -6 9 -4 9 8 -1 9 -7 25
-12 35 -10 11 2 17 -2 15 -11 -3 -12 0 -12 12 -1 12 9 19 10 30 1 11 -10 19
-7 36 11 l22 23 -7 -25 -8 -25 23 25 c15 17 20 20 16 8 -7 -23 10 -24 18 -1 5
12 9 14 18 5 16 -16 31 -15 22 1 -5 8 -3 8 9 -2 9 -7 14 -17 11 -22 -9 -15 8
-10 20 6 14 19 53 27 62 13 5 -7 2 -8 -6 -3 -8 5 -11 4 -6 -3 4 -6 13 -9 21
-6 8 4 13 9 10 13 -2 4 2 8 10 8 8 0 12 -4 9 -9 -8 -13 10 -10 25 5 11 10 12
9 6 -3 -8 -13 -7 -13 8 -1 9 7 17 9 17 4 0 -5 7 -10 15 -10 10 0 12 4 5 12 -6
7 -3 11 10 12 13 1 17 -3 13 -14 -4 -11 1 -9 15 5 24 24 29 38 10 26 -7 -4 -8
-3 -4 5 6 9 11 9 22 0 11 -9 14 -8 14 5 0 10 5 26 11 37 9 17 13 18 26 7 15
-12 15 -11 4 11 -9 16 -10 26 -3 33 6 6 8 17 4 26 -4 11 -1 14 11 9 11 -4 14
-2 10 9 -3 7 -11 14 -18 14 -7 0 -16 7 -19 16 -6 15 -4 15 11 3 10 -7 15 -9
11 -5 -4 5 -3 15 2 22 8 9 6 12 -7 10 -12 -1 -19 7 -22 24 -4 30 -19 42 -46
34 -19 -6 -20 -6 -1 8 15 12 16 17 6 23 -9 6 -11 4 -5 -4 5 -9 -1 -12 -21 -10
-32 4 -56 17 -49 29 2 4 -7 6 -20 4 -14 -1 -27 2 -31 7 -3 5 -11 9 -17 9 -7 0
-6 -4 3 -10 8 -5 12 -10 8 -11 -26 -5 -35 -4 -55 3 -12 4 -25 3 -28 -2 -3 -5
-12 -7 -20 -3 -9 3 -22 -1 -31 -8 -8 -7 -14 -8 -13 -3 5 29 -3 34 -21 13 -11
-13 -20 -19 -19 -14 3 22 -1 35 -12 35 -5 0 -7 -4 -4 -10 3 -5 1 -10 -4 -11
-37 -3 -58 -2 -69 5 -6 4 -12 3 -12 -1 0 -5 -9 -9 -20 -10 -13 -1 -18 2 -14 9
5 7 2 8 -7 3 -18 -12 -59 -15 -59 -5 0 4 -7 11 -16 14 -13 5 -14 3 -6 -6 8
-10 4 -13 -14 -14 -14 -1 -21 2 -17 9 4 6 1 7 -8 2 -22 -14 -50 -13 -45 1 7
17 -10 28 -20 13 -5 -8 -3 -9 6 -4 9 5 11 4 6 -4 -13 -21 -27 -1 -14 22 9 19
9 20 -3 10 -12 -9 -14 -2 -15 48 0 32 4 59 9 59 4 0 5 -5 1 -12 -5 -7 -3 -8 5
-4 10 6 9 12 -1 24 -8 10 -13 35 -11 62 5 73 4 71 22 57 8 -6 12 -7 9 -2 -3 6
1 17 10 25 14 13 15 12 9 -3 -8 -21 -3 -22 17 -1 9 8 16 11 16 5 0 -6 5 -11
11 -11 5 0 8 4 5 9 -7 11 13 9 32 -2 8 -5 12 -2 12 8 0 9 5 13 10 10 6 -4 7
-11 4 -17 -4 -7 -2 -8 4 -4 7 4 12 15 12 24 0 14 2 15 9 2 6 -8 7 -18 4 -24
-3 -5 -1 -6 6 -2 6 4 10 13 9 19 -2 7 2 14 7 15 6 2 17 9 25 15 13 10 13 10 1
-5 -7 -10 -18 -15 -24 -11 -6 4 -7 1 -3 -6 6 -9 12 -9 25 3 10 9 24 16 32 16
8 0 10 3 4 8 -5 4 -11 13 -13 21 -3 12 -1 12 13 1 14 -11 16 -11 13 1 -2 8 -7
17 -13 21 -6 5 -3 8 7 8 9 0 20 5 24 12 4 7 3 8 -4 4 -7 -4 -12 -2 -12 3 0 6
5 11 10 11 6 0 10 5 10 11 0 5 -6 7 -12 3 -10 -6 -10 -4 0 7 14 15 16 33 3 25
-11 -7 -9 13 3 33 6 9 5 12 -2 7 -17 -10 -20 18 -3 30 12 10 10 11 -13 9 -15
-2 -25 -1 -22 2 3 3 -2 12 -12 20 -9 8 -12 12 -5 9 6 -4 15 -1 19 6 4 7 4 10
-1 6 -4 -4 -17 -3 -28 3 -15 9 -18 8 -12 -3 6 -10 5 -10 -5 -1 -11 10 -11 15
1 30 13 16 12 17 -3 4 -15 -11 -18 -11 -18 0 0 8 -6 6 -16 -7 -15 -18 -15 -18
-11 4 4 17 2 21 -6 14 -7 -5 -22 -12 -34 -14 -17 -5 -20 -2 -15 11 5 13 3 14
-10 4 -8 -7 -18 -10 -22 -6 -4 4 -21 8 -38 8 -36 1 -39 9 -41 100 -2 41 2 63
12 71 11 9 12 12 1 19 -9 6 -11 4 -5 -6 5 -8 4 -11 -1 -6 -13 12 -13 77 0 70
6 -4 5 1 -3 10 -12 15 -11 20 4 37 14 16 15 21 4 25 -16 6 -22 65 -7 65 5 0 6
-5 2 -12 -5 -7 -3 -8 5 -4 10 6 9 12 -1 24 -12 15 -13 40 -6 104 1 15 4 15 16
5 13 -11 14 -9 2 13 -13 24 -12 24 5 10 17 -14 18 -13 12 2 -4 12 -2 15 8 11
8 -3 13 -9 10 -13 -7 -11 22 -6 32 5 4 4 2 5 -6 0 -9 -5 -12 -4 -7 3 5 9 15 7
34 -5 21 -14 24 -14 15 -2 -10 12 -8 15 10 16 12 1 24 -3 28 -9 4 -7 11 -2 19
11 10 19 14 20 28 9 12 -10 14 -10 8 -1 -4 8 -2 13 4 13 6 0 8 5 4 13 -5 8 -2
7 9 -2 10 -8 21 -11 24 -7 4 4 1 11 -7 16 -12 7 -10 13 10 34 13 15 20 26 16
26 -5 0 -3 6 4 14 6 8 19 13 28 10 12 -4 11 -1 -3 8 -11 7 -21 19 -23 27 -3
12 0 12 12 1 21 -17 20 -6 0 15 -9 9 -17 27 -17 40 0 16 -4 22 -11 18 -6 -4
-4 2 4 12 9 11 10 16 3 11 -12 -7 -18 5 -14 27 1 5 -3 6 -8 2 -6 -3 -8 -13 -5
-23 5 -14 4 -14 -4 -3 -6 8 -7 21 -4 30 5 13 3 14 -9 4 -11 -9 -18 -8 -31 1
-10 7 -14 17 -10 22 4 4 -2 2 -12 -6 -11 -8 -21 -14 -22 -12 -41 31 -104 46
-88 20 4 -6 -3 -5 -15 1 -12 7 -27 9 -33 5 -6 -4 -8 -3 -4 4 3 5 3 12 -1 15
-5 2 -2 2 6 0 11 -3 11 0 3 10 -7 8 -8 18 -4 23 4 4 0 3 -8 -3 -12 -9 -15 -7
-15 13 0 13 3 24 8 24 4 0 7 5 7 11 0 5 -3 8 -8 6 -4 -3 -7 26 -7 64 0 55 3
68 14 64 11 -5 12 -3 1 10 -18 21 -20 83 -3 89 7 3 13 11 13 17 0 8 -4 8 -12
1 -10 -8 -13 -3 -14 19 -1 32 5 35 26 17 8 -7 6 -3 -4 10 -15 17 -20 39 -20
88 -1 36 3 68 8 71 5 4 6 0 1 -8 -7 -12 -5 -12 6 -1 12 11 12 14 -1 22 -13 9
-13 10 0 11 8 0 25 2 38 5 15 3 21 0 17 -7 -4 -6 -14 -8 -24 -4 -11 4 -13 3
-5 -5 14 -14 44 -2 44 17 0 11 6 8 20 -8 10 -13 19 -18 20 -11 0 6 -4 12 -10
12 -5 0 -10 4 -10 8 0 5 10 8 22 7 13 -1 31 2 40 6 11 6 22 4 32 -7 9 -8 16
-12 16 -7 0 5 -6 15 -13 22 -10 10 -7 10 15 2 22 -8 26 -8 21 5 -3 8 -2 14 3
13 5 -1 17 1 27 6 17 7 17 8 0 22 -10 8 -13 12 -7 9 7 -3 18 2 25 11 10 12 10
14 1 9 -6 -4 -12 -2 -12 3 0 6 8 11 18 12 11 0 12 2 4 6 -10 4 -9 9 5 19 17
13 17 14 -2 7 -18 -6 -18 -5 -6 10 8 10 9 17 3 17 -6 0 -9 9 -7 20 2 11 -1 22
-6 25 -5 4 -7 10 -4 15 3 5 -4 14 -15 20 -17 9 -18 14 -9 32 8 15 8 18 0 14
-6 -4 -11 -3 -11 3 0 6 -8 7 -18 4 -15 -6 -16 -5 -2 13 14 18 14 18 -4 4 -24
-19 -46 -22 -39 -4 3 8 -1 14 -10 14 -8 0 -18 -6 -20 -12 -3 -7 -6 -3 -6 10
-1 13 -5 20 -11 17 -6 -4 -8 -10 -6 -14 3 -4 -1 -8 -8 -8 -8 0 -12 6 -9 13 5
14 -22 13 -34 -1 -4 -4 -2 -5 6 0 10 5 12 4 7 -4 -5 -8 -13 -7 -29 4 -28 20
-46 19 -21 -1 18 -15 18 -15 -3 -5 -14 7 -21 18 -18 31 2 11 0 18 -4 15 -5 -3
-12 2 -15 11 -5 12 -2 15 11 10 10 -4 14 -4 10 0 -4 4 -1 14 6 22 9 12 9 14 0
9 -7 -5 -16 1 -23 13 -7 13 -7 20 0 20 5 0 10 5 10 11 0 5 -3 8 -8 5 -15 -9
-8 148 7 160 11 9 12 12 1 19 -9 6 -11 4 -5 -6 5 -8 4 -11 -1 -6 -12 11 -13
77 -1 70 6 -4 7 -1 1 8 -15 24 -12 57 6 52 13 -4 13 -3 0 9 -16 14 -24 61 -9
52 12 -7 11 3 -1 27 -9 15 -7 19 5 19 9 0 14 4 11 9 -4 5 -1 11 6 13 7 3 5 7
-6 11 -9 4 -15 3 -11 -2 3 -5 1 -12 -4 -15 -13 -9 -7 19 8 38 13 16 36 23 27
8 -2 -4 3 -8 13 -8 13 0 17 6 14 21 -4 18 -3 19 7 2 12 -19 35 -13 23 6 -5 8
-2 8 9 0 8 -7 19 -9 23 -5 5 4 5 1 1 -5 -4 -7 -3 -13 2 -13 6 0 12 7 16 15 4
11 11 13 30 5 17 -6 27 -6 32 2 4 6 3 8 -4 4 -6 -3 -13 -2 -17 4 -3 5 3 10 14
10 10 0 22 -6 25 -12 3 -7 3 -3 0 9 -4 18 -1 21 18 16 18 -4 20 -3 8 6 -11 8
-12 11 -2 11 8 0 10 5 6 13 -5 8 -2 7 9 -2 15 -12 17 -12 11 4 -6 14 -4 16 7
10 11 -7 11 -5 -1 10 -14 17 -13 18 10 12 22 -5 23 -5 7 7 -18 14 -24 32 -7
21 6 -3 10 -2 10 4 0 5 -6 12 -12 14 -10 4 -9 6 1 6 11 1 11 4 1 16 -9 10 -9
19 -2 28 7 8 6 16 -3 24 -7 6 -15 10 -17 8 -9 -9 -6 40 2 50 7 8 5 12 -5 12
-8 0 -12 -4 -9 -9 9 -14 -6 -9 -23 7 -8 8 -19 13 -24 10 -5 -4 -9 -2 -9 3 0 5
-7 9 -15 10 -8 1 -22 3 -30 4 -8 1 -12 5 -9 9 3 5 -20 7 -51 5 -44 -3 -55 0
-55 12 0 12 -2 12 -17 1 -11 -10 -14 -10 -9 -1 4 7 2 12 -5 12 -8 0 -7 5 2 17
10 11 10 14 1 9 -13 -8 -14 -7 -16 47 0 20 2 37 7 37 4 0 7 5 7 11 0 5 -3 8
-7 6 -5 -3 -8 26 -8 64 0 55 3 68 14 64 11 -5 12 -3 1 10 -18 21 -20 83 -3 89
7 3 13 11 13 17 0 8 -4 8 -12 1 -10 -8 -13 -3 -14 19 -1 32 5 35 26 16 8 -6 6
-2 -4 11 -14 16 -20 39 -20 86 -1 35 2 62 6 60 11 -7 10 4 -3 28 -9 16 -8 19
2 13 9 -6 11 -3 6 8 -4 11 -1 17 9 17 9 0 12 -5 8 -13 -6 -9 -4 -9 8 1 8 7 24
9 34 6 17 -6 17 -5 -1 10 l-20 16 20 -7 c11 -3 30 -13 42 -20 16 -11 23 -11
29 -2 4 8 3 9 -4 5 -7 -4 -12 -2 -12 4 0 6 -6 8 -13 4 -6 -4 -9 -3 -4 1 4 5
18 9 31 10 17 0 22 -4 18 -14 -3 -9 -1 -12 7 -7 17 11 111 14 111 3 0 -4 5 -5
10 -2 6 4 8 12 4 18 -3 7 1 4 8 -5 13 -15 15 -15 26 0 10 15 11 15 5 -3 -3
-11 -3 -17 2 -13 4 4 16 3 26 -2 12 -7 20 -6 25 2 4 7 3 8 -4 4 -7 -4 -12 -2
-12 4 0 6 -6 8 -12 4 -7 -4 -10 -3 -5 1 12 14 55 12 50 -1 -6 -17 26 -11 38 7
7 11 9 10 9 -5 0 -17 2 -18 18 -4 17 16 47 14 37 -3 -4 -5 1 -6 9 -3 9 3 13
10 10 15 -3 5 2 6 10 3 9 -3 14 -9 12 -13 -3 -4 4 -7 14 -7 12 0 16 4 10 11
-6 7 -2 11 10 12 13 1 17 -3 13 -14 -4 -11 -2 -14 5 -9 7 4 12 13 12 21 0 8 4
17 10 20 6 4 7 -1 4 -12 -5 -15 -2 -14 13 3 16 18 23 20 39 11 17 -9 17 -9 6
5 -11 14 -10 16 10 11 18 -4 20 -3 8 6 -13 9 -13 11 3 11 9 0 17 5 17 11 0 5
-6 7 -12 3 -9 -5 -9 -3 1 9 14 18 36 13 25 -6 -4 -7 -4 -9 1 -5 4 4 15 2 23
-5 11 -9 10 -4 -3 16 -14 23 -15 26 -2 21 8 -3 18 -12 21 -20 3 -8 11 -14 18
-14 9 0 9 3 -2 10 -13 8 -13 11 -1 22 9 9 12 9 7 1 -5 -9 2 -11 21 -8 43 7 57
10 68 16 24 13 39 3 40 -27 1 -24 -3 -30 -15 -26 -12 4 -13 2 -2 -9 15 -16 16
-29 1 -29 -5 0 -7 5 -4 10 3 6 1 10 -4 10 -12 0 -14 -13 -4 -24 14 -14 12 -38
-3 -32 -11 4 -12 2 -5 -12 7 -14 5 -21 -11 -31 -19 -12 -19 -13 -3 -25 16 -12
16 -13 -1 -31 -10 -10 -19 -25 -19 -34 0 -9 -6 -15 -13 -13 -8 1 -7 -6 5 -25
17 -26 17 -27 0 -20 -9 3 -17 2 -17 -3 0 -6 6 -10 13 -10 9 0 8 -3 -2 -9 -11
-7 -11 -9 0 -14 10 -4 10 -6 2 -6 -7 -1 -13 -6 -13 -12 0 -5 4 -7 10 -4 6 3 7
-1 4 -9 -3 -9 -10 -14 -14 -11 -5 3 -12 0 -16 -6 -5 -8 -3 -9 6 -4 10 6 12 4
7 -8 -3 -9 -1 -19 5 -23 6 -4 8 -3 4 4 -3 6 -2 13 3 16 5 4 7 -7 5 -24 -3 -18
-1 -30 6 -30 6 0 8 6 4 13 -4 6 -3 9 1 4 5 -4 10 -17 12 -30 2 -12 11 -26 21
-31 16 -10 85 -16 76 -7 -5 5 28 30 40 31 6 0 2 -6 -8 -13 -16 -12 -16 -13 3
-13 11 0 19 3 19 6 -2 18 4 30 13 30 7 0 18 8 25 18 11 14 15 14 23 3 6 -9 8
-6 8 13 1 23 -2 25 -16 14 -14 -12 -14 -11 -2 5 9 12 17 14 26 7 17 -14 26 -1
15 20 -7 13 -5 21 5 30 7 6 11 19 8 28 -4 13 -2 12 11 -3 10 -11 15 -14 11 -7
-4 7 -2 19 5 27 9 10 7 16 -7 24 -17 10 -17 10 0 11 11 0 15 4 11 12 -5 7 -2
9 8 6 8 -4 15 -1 15 7 0 7 -7 11 -16 8 -13 -4 -12 -2 1 7 9 6 15 17 12 25 -4
8 -1 15 6 15 7 0 10 7 6 15 -3 8 -1 15 4 15 6 0 10 5 10 11 0 5 -6 7 -12 3 -9
-5 -9 -3 1 9 7 9 17 14 23 11 8 -5 6 -36 -8 -123 -2 -13 -6 -45 -10 -70 -4
-25 -8 -55 -10 -66 -2 -11 -7 -40 -10 -65 -3 -25 -7 -52 -9 -60 -2 -8 -7 -37
-11 -65 -3 -27 -8 -53 -10 -56 -2 -4 -6 -24 -9 -45 -3 -22 -7 -48 -9 -59 -2
-11 -7 -40 -11 -65 -4 -25 -9 -54 -11 -65 -2 -11 -6 -33 -9 -50 -3 -16 -10
-52 -15 -80 -6 -27 -12 -61 -15 -75 -25 -129 -62 -307 -86 -407 -15 -67 -30
-132 -33 -145 -2 -13 -27 -113 -54 -223 -51 -202 -70 -297 -86 -425 -25 -198
-35 -528 -21 -700 16 -204 15 -193 30 -310 13 -98 40 -249 66 -365 11 -50 18
-101 16 -114 -4 -24 -34 -43 -51 -33 -5 3 -6 0 -2 -7 4 -6 13 -9 19 -5 7 3 1
-4 -12 -16 -13 -11 -30 -19 -37 -16 -8 3 -11 0 -7 -9 3 -8 10 -12 16 -8 6 3 7
1 3 -6 -6 -9 -11 -9 -23 1 -14 11 -15 10 -8 -12 7 -23 7 -24 -10 -10 -16 13
-18 13 -13 0 7 -19 -10 -53 -22 -45 -5 3 -11 1 -15 -5 -4 -6 -11 -7 -17 -4 -7
4 -8 2 -4 -5 6 -9 11 -9 22 0 20 16 17 0 -3 -24 -11 -12 -12 -17 -4 -12 10 6
12 4 7 -4 -5 -7 -15 -10 -23 -6 -13 4 -14 3 -3 -10 7 -8 17 -12 23 -8 6 4 7 1
1 -8 -14 -23 -12 -99 4 -99 7 0 10 5 6 12 -4 6 -3 8 3 5 6 -4 9 -18 8 -32 -2
-16 1 -23 8 -18 7 4 8 0 3 -13 -6 -15 -5 -16 5 -7 10 10 9 16 -2 29 -11 14
-11 16 0 10 8 -5 17 -3 23 5 7 10 8 8 4 -7 -4 -14 -2 -21 8 -21 9 0 13 4 10 9
-3 4 0 8 5 8 6 0 11 -8 12 -17 0 -11 3 -13 6 -5 2 6 10 9 16 5 9 -5 9 -3 0 8
-10 12 -6 14 29 11 31 -3 39 -1 33 8 -6 9 -4 11 4 6 9 -6 9 -12 -3 -24 -10
-12 -12 -22 -5 -34 6 -12 6 -24 0 -37 -6 -10 -7 -21 -4 -25 3 -3 1 -6 -4 -6
-6 0 -14 6 -17 13 -3 6 -3 2 0 -10 3 -12 0 -32 -6 -44 -9 -16 -9 -23 -1 -29 7
-3 9 -14 5 -23 -3 -9 -10 -14 -15 -11 -5 3 -6 -2 -3 -11 4 -8 1 -22 -6 -30 -7
-8 -10 -28 -8 -44 4 -27 3 -29 -16 -19 -17 8 -19 8 -9 -2 6 -7 9 -19 6 -28 -5
-11 -3 -13 8 -7 12 7 12 6 1 -8 -16 -19 -12 -63 6 -59 8 1 11 -2 7 -8 -3 -6
-11 -8 -16 -5 -5 4 -9 2 -9 -3 0 -10 26 -24 45 -26 6 -1 10 -11 9 -22 -1 -19
2 -21 27 -14 24 7 27 6 24 -11 -2 -11 0 -17 6 -14 5 4 9 13 9 21 0 8 5 12 10
9 6 -4 18 -1 27 7 12 9 15 9 9 1 -4 -7 -3 -13 2 -13 5 0 8 -20 6 -45 l-5 -45
233 2 232 3 23 34 c20 29 29 28 24 -2 -1 -5 3 -5 9 -2 6 4 9 14 5 23 -5 13 -2
12 14 -2 11 -10 18 -24 15 -30 -3 -6 4 0 15 13 19 21 21 21 22 5 0 -18 1 -17
9 1 5 11 9 14 9 8 1 -7 9 -22 18 -33 17 -20 23 -20 3430 -20 l3412 0 10 53 c6
28 12 66 13 84 l2 31 48 -24 c75 -38 213 -85 298 -101 161 -31 377 -21 523 23
30 9 19 35 -49 107 -143 151 -233 335 -309 632 -51 200 -83 407 -110 710 -4
51 -11 253 -20 595 -3 107 -8 231 -10 275 -3 44 -7 125 -10 180 -9 161 -19
310 -30 435 -3 31 -7 85 -10 120 -3 36 -7 90 -10 120 -3 30 -8 75 -10 100 -8
85 -17 165 -20 182 -2 9 -6 43 -10 75 -6 56 -12 103 -20 152 -2 13 -7 45 -10
70 -25 187 -103 604 -142 756 -14 55 -26 107 -28 115 -12 59 -114 438 -153
570 l-28 95 31 80 c143 365 248 759 300 1120 3 22 10 65 15 95 10 53 14 93 26
212 3 32 7 66 9 76 8 45 23 348 25 531 l2 134 52 91 c65 113 118 237 147 341
l21 79 -28 24 c-59 48 -192 130 -284 174 -91 45 -281 114 -338 124 -15 3 -43
9 -62 14 -19 5 -62 12 -95 16 -33 3 -69 8 -80 11 -30 6 -323 5 -375 -1 -106
-13 -146 -19 -160 -21 -203 -41 -326 -73 -442 -116 l-80 -29 7 42 c12 69 15
112 9 130 -6 20 -164 58 -346 83 -21 3 -55 8 -75 11 -73 11 -89 12 -203 19
-201 13 -499 8 -600 -10 -8 -1 -44 -6 -80 -9 -133 -15 -200 -29 -390 -82 -115
-33 -331 -110 -372 -134 -24 -13 -27 -13 -24 5 1 8 11 22 22 31 19 15 19 16
-1 9 -15 -5 -17 -3 -8 6 6 6 9 17 7 24 -3 7 0 16 7 21 8 4 10 3 5 -4 -5 -8 -2
-10 9 -6 14 6 14 7 0 18 -14 10 -14 16 -3 42 7 17 19 30 26 28 7 -1 8 0 2 3
-5 2 -10 14 -10 24 0 11 5 17 10 14 6 -3 10 -1 10 4 0 6 -6 11 -12 11 -9 0 -8
4 2 10 11 7 11 10 2 10 -7 0 -10 5 -7 10 5 8 12 7 23 -2 15 -11 15 -11 6 2
-19 26 -24 49 -12 56 6 4 8 3 4 -4 -3 -6 -3 -13 2 -16 4 -2 8 6 8 19 0 13 -4
21 -8 19 -4 -3 -8 -1 -8 5 0 5 8 15 18 20 15 9 15 10 0 11 -17 0 -19 23 -3 37
4 4 5 2 0 -6 -6 -10 -4 -12 4 -6 9 5 10 10 2 18 -7 7 -5 15 7 24 9 8 11 12 5
8 -7 -3 -13 -2 -13 4 0 5 -3 17 -7 27 -4 11 -3 15 5 10 6 -3 14 -2 17 4 4 6 3
10 -2 9 -19 -3 -27 2 -15 9 7 5 14 18 17 31 2 12 0 19 -4 16 -5 -3 -11 1 -13
8 -6 16 2 38 11 33 4 -3 8 1 8 9 0 8 -4 12 -8 10 -4 -3 -9 2 -12 10 -4 9 -1
12 7 9 7 -3 13 2 13 10 0 8 -5 12 -10 9 -5 -3 -7 0 -5 8 3 8 11 13 18 11 11
-3 11 0 0 12 -15 19 -24 21 -14 4 4 -7 3 -8 -4 -4 -13 8 -5 36 12 36 6 0 3 5
-6 11 -13 7 -16 17 -11 39 3 20 1 30 -6 30 -7 0 -9 4 -6 10 3 5 0 20 -6 32
-10 20 -10 22 2 13 8 -5 7 -3 -3 7 -13 12 -15 18 -6 21 10 4 10 6 1 6 -7 1
-13 13 -13 27 0 14 -4 23 -10 19 -5 -3 -10 0 -10 9 0 8 -6 17 -12 19 -10 4
-10 6 1 6 8 1 4 8 -10 21 -13 10 -19 19 -13 20 5 0 16 -6 24 -12 8 -7 4 -1 -9
15 -25 28 -38 36 -25 15 4 -7 3 -8 -4 -4 -7 4 -12 14 -12 22 0 9 -5 12 -12 8
-7 -4 -4 3 7 17 15 18 16 20 3 10 -12 -9 -18 -10 -18 -2 0 6 -7 11 -16 11 -8
0 -13 4 -9 9 3 5 -3 12 -13 15 -10 3 -26 19 -35 36 -12 20 -23 27 -34 23 -12
-5 -15 -2 -10 10 6 15 3 16 -13 7 -15 -8 -20 -8 -18 1 2 6 -3 14 -11 17 -9 3
-11 0 -6 -8 5 -9 4 -11 -4 -6 -9 6 -9 11 -1 21 8 10 8 15 -1 21 -8 4 -9 3 -5
-4 4 -7 1 -12 -8 -12 -9 0 -16 5 -16 10 0 6 -5 10 -11 10 -5 0 -7 -5 -3 -11 4
-8 0 -8 -15 0 -11 7 -21 9 -21 5 0 -4 -8 0 -17 8 -54 45 -212 89 -298 82 -125
-11 -225 -35 -320 -79 -123 -57 -211 -129 -292 -239 -24 -32 -44 -52 -45 -45
0 8 -2 20 -2 27 -1 7 -8 18 -16 23 -13 9 -12 10 3 5 9 -3 17 -1 17 4 0 6 -5
10 -11 10 -6 0 -9 7 -6 15 4 8 1 17 -5 21 -7 4 -8 3 -4 -4 4 -7 2 -12 -3 -12
-14 0 -14 13 1 28 9 9 9 12 -1 12 -7 0 -9 5 -5 12 4 6 3 8 -3 5 -5 -3 -17 3
-26 14 -17 20 -9 27 9 9 7 -7 11 -6 11 4 0 8 -3 15 -6 14 -22 -2 -31 5 -31 23
0 13 -4 18 -12 13 -8 -5 -7 0 2 11 14 17 13 18 -2 12 -23 -8 -42 15 -25 32 9
10 8 11 -6 5 -13 -5 -16 -2 -10 12 4 12 3 15 -5 10 -7 -4 -12 -2 -12 4 0 6 -5
8 -12 4 -10 -6 -10 -5 -1 8 15 17 8 28 -19 28 -11 0 -16 5 -13 10 3 6 1 10 -5
10 -6 0 -8 5 -4 13 5 7 0 6 -11 -3 -11 -9 -16 -10 -11 -2 7 11 -5 17 -28 13
-5 -1 -4 4 3 13 7 9 8 16 2 20 -5 4 -13 2 -16 -4 -4 -6 -14 -1 -26 12 -14 17
-17 18 -13 6 3 -10 1 -18 -5 -18 -6 0 -10 3 -10 8 4 21 -3 30 -18 27 -25 -4
-55 14 -48 28 4 7 -1 3 -11 -8 -16 -20 -16 -20 -11 3 4 18 2 21 -7 13 -9 -7
-16 -7 -26 2 -9 8 -11 8 -6 0 10 -18 -17 -22 -36 -5 -14 12 -18 12 -18 2 0
-11 -3 -11 -12 -2 -7 7 -17 8 -29 2 -10 -6 -20 -6 -23 -1 -7 10 -63 7 -74 -4
-4 -5 -1 -5 6 -1 6 4 12 2 12 -3 0 -17 -18 -13 -29 7 -10 16 -10 16 -11 0z
m-2110 -117 c0 -5 -7 -12 -16 -15 -14 -5 -15 -4 -4 9 14 17 20 19 20 6z m1833
-11 c-10 -11 -19 -20 -20 -20 -7 0 3 26 12 32 20 15 24 8 8 -12z m-3063 -40
c0 -5 -5 -10 -11 -10 -5 0 -7 5 -4 10 3 6 8 10 11 10 2 0 4 -4 4 -10z m2124 2
c3 -5 -1 -9 -9 -9 -8 0 -12 4 -9 9 3 4 7 8 9 8 2 0 6 -4 9 -8z m-704 -82 c0
-5 -5 -10 -11 -10 -5 0 -7 5 -4 10 3 6 8 10 11 10 2 0 4 -4 4 -10z m2007 -225
c-4 -8 -1 -17 5 -21 6 -4 9 -3 6 2 -3 5 0 15 8 22 14 13 19 5 15 -21 -1 -5 3
-5 9 -2 6 4 9 14 6 22 -4 9 -2 11 6 7 7 -4 26 -9 42 -11 37 -4 86 -25 86 -36
0 -5 -6 -5 -12 -1 -10 6 -10 5 -1 -7 12 -15 11 -64 -2 -77 -4 -4 -4 3 -1 16 4
12 3 22 -2 22 -6 0 -9 -13 -8 -30 1 -20 -2 -30 -12 -30 -12 0 -12 -3 -2 -15
15 -18 -1 -20 -19 -2 -11 10 -11 8 -2 -10 10 -20 8 -26 -19 -49 -16 -15 -30
-36 -30 -47 0 -12 -5 -17 -14 -14 -10 4 -12 0 -9 -14 3 -11 0 -19 -6 -19 -7 0
-9 5 -5 12 4 7 3 8 -5 4 -8 -6 -9 -12 -2 -20 11 -14 5 -26 -13 -26 -6 0 -4 5
4 11 13 9 13 10 0 6 -8 -2 -14 -12 -12 -22 2 -10 -1 -14 -7 -10 -6 3 -11 -1
-11 -9 0 -9 -5 -16 -11 -16 -5 0 -7 5 -3 12 4 7 3 8 -5 4 -6 -4 -9 -11 -6 -16
7 -11 -5 -40 -17 -40 -5 0 -6 5 -2 12 4 7 3 8 -5 4 -9 -6 -9 -11 1 -24 11 -14
10 -15 -6 -9 -16 6 -17 5 -6 -8 17 -20 6 -19 -15 1 -15 15 -15 14 -9 -11 6
-25 5 -27 -17 -20 -18 5 -20 4 -9 -4 13 -9 13 -12 1 -23 -11 -11 -13 -11 -6 1
6 10 4 12 -4 7 -9 -6 -9 -11 1 -24 10 -12 10 -14 1 -8 -8 4 -13 2 -14 -6 0
-10 -2 -10 -6 0 -2 6 -10 12 -16 12 -5 0 -7 -3 -4 -7 4 -3 2 -12 -5 -20 -9
-11 -7 -12 8 -8 13 5 12 2 -4 -7 -12 -8 -20 -17 -16 -20 5 -6 -20 -4 -36 2 -3
1 -8 2 -12 1 -4 0 -4 7 -1 17 3 9 3 14 -2 10 -9 -9 -34 20 -35 40 0 7 5 10 12
6 7 -4 8 -3 4 4 -4 6 -14 8 -24 5 -9 -3 -14 -2 -9 2 4 5 -1 17 -10 27 -16 18
-16 18 3 12 18 -7 18 -6 -1 13 -11 11 -24 18 -30 16 -5 -2 -1 3 9 11 18 15 14
20 -14 18 -3 0 -5 15 -5 33 0 18 3 31 7 29 4 -2 10 0 13 6 4 6 3 10 -2 9 -20
-3 -34 2 -28 11 4 6 12 7 18 3 7 -4 6 0 -2 10 -12 15 -11 17 3 17 10 0 14 5
11 10 -4 6 -10 8 -15 5 -19 -12 -19 16 0 35 11 11 16 20 11 20 -10 0 -7 30 8
78 7 23 7 30 -1 26 -6 -4 -8 -1 -6 7 3 8 11 13 18 11 11 -3 11 0 0 13 -11 13
-10 14 5 9 14 -6 16 -4 10 7 -8 12 -6 12 8 0 15 -12 17 -12 11 3 -3 9 -2 16 2
17 5 0 17 2 27 4 10 2 15 -1 11 -8 -3 -7 0 -5 8 3 7 9 22 15 33 15 11 0 34 7
51 17 32 18 61 25 34 8 -8 -5 -12 -12 -8 -15 3 -3 12 0 19 7 8 7 27 13 42 13
16 -1 31 3 33 7 9 14 16 9 11 -7z m-1784 -130 c-3 -9 -8 -14 -10 -11 -3 3 -2
9 2 15 9 16 15 13 8 -4z m1897 -99 c0 -2 -8 -10 -17 -17 -16 -13 -17 -12 -4 4
13 16 21 21 21 13z m1196 -58 c-6 9 4 11 46 6 29 -3 59 -11 66 -16 6 -6 12 -7
12 -2 0 4 9 -2 20 -14 12 -12 25 -22 31 -22 6 0 6 -7 -1 -19 -9 -17 -7 -19 10
-16 14 3 18 0 13 -8 -11 -18 -12 -38 -2 -31 5 3 7 10 4 15 -4 5 -1 9 5 9 7 0
9 -7 6 -17 -4 -9 -1 -20 6 -25 8 -6 4 -7 -12 -3 l-25 6 23 -13 c18 -11 20 -16
10 -27 -11 -11 -10 -13 3 -8 12 4 15 -2 15 -23 0 -18 -4 -27 -10 -23 -6 3 -6
0 1 -7 9 -10 9 -16 -2 -27 -12 -11 -11 -19 8 -51 12 -22 15 -32 7 -25 -13 10
-15 3 -15 -42 0 -29 3 -51 8 -48 4 2 7 -1 7 -6 0 -6 -5 -11 -12 -11 -6 0 -9
-3 -5 -6 3 -3 2 -16 -3 -29 -6 -15 -4 -27 3 -34 9 -9 8 -11 -3 -6 -13 4 -15
-2 -15 -30 1 -32 -5 -40 -28 -36 -5 1 -6 -3 -2 -9 3 -6 10 -8 14 -6 4 3 8 -1
8 -9 0 -8 -4 -12 -8 -9 -4 2 -10 0 -14 -6 -3 -5 -1 -10 5 -10 6 0 8 -5 5 -10
-5 -8 -12 -7 -23 2 -12 9 -11 6 2 -10 12 -13 14 -22 7 -22 -7 0 -9 -4 -6 -10
3 -5 1 -10 -4 -10 -6 0 -11 5 -11 12 0 6 -3 9 -6 6 -3 -4 0 -16 6 -29 11 -19
10 -21 -4 -16 -8 3 -18 2 -21 -4 -4 -5 -1 -8 6 -7 6 2 14 -3 17 -11 3 -8 0
-11 -7 -7 -6 4 -11 2 -11 -3 0 -6 -5 -10 -11 -9 -7 2 -12 -11 -13 -30 -1 -33
-21 -55 -41 -46 -5 3 -3 -1 6 -8 14 -11 14 -15 3 -26 -8 -7 -14 -10 -14 -5 0
4 -6 -2 -14 -13 -9 -12 -11 -23 -5 -30 6 -7 2 -17 -11 -29 -11 -10 -20 -24
-20 -32 0 -14 -9 -17 -26 -5 -28 20 -96 220 -111 332 -10 71 -10 355 0 444 10
90 37 197 48 190 5 -3 9 2 9 10 0 9 5 16 11 16 5 0 8 -4 4 -9 -3 -5 0 -13 6
-17 7 -4 9 -3 5 4 -10 17 26 33 43 19 12 -9 13 -9 7 1z m-2876 -159 c0 6 4 11
10 11 5 0 7 -7 4 -15 -8 -20 -30 -19 -38 1 -5 14 -4 15 9 4 10 -8 15 -9 15 -1z
m3116 -128 c0 -15 -3 -17 -13 -9 -7 6 -10 14 -7 19 9 15 20 10 20 -10z m-1146
-41 c0 -5 -5 -10 -11 -10 -5 0 -7 5 -4 10 3 6 8 10 11 10 2 0 4 -4 4 -10z m-8
-82 c-5 -88 -6 -90 -39 -73 -15 8 -34 15 -41 15 -8 0 -10 5 -6 12 5 8 1 9 -12
5 -11 -4 -4 7 19 28 20 19 37 39 37 45 0 8 28 29 41 30 3 0 3 -28 1 -62z m968
-498 c0 -5 -5 -10 -11 -10 -5 0 -7 5 -4 10 3 6 8 10 11 10 2 0 4 -4 4 -10z
m-3120 -220 c0 -5 -5 -10 -11 -10 -5 0 -7 5 -4 10 3 6 8 10 11 10 2 0 4 -4 4
-10z m-900 -2950 c0 -5 -5 -10 -11 -10 -5 0 -7 5 -4 10 3 6 8 10 11 10 2 0 4
-4 4 -10z m242 -52 c-7 -7 -12 -8 -12 -2 0 14 12 26 19 19 2 -3 -1 -11 -7 -17z
m504 -163 c-1 -13 -4 -27 -7 -30 -5 -4 -4 41 0 53 4 10 8 -2 7 -23z m-9 -65
c-1 -11 -4 -20 -8 -20 -3 0 -5 -13 -3 -30 4 -33 -5 -43 -26 -29 -13 7 -13 9 0
9 11 0 15 10 15 38 -1 41 2 52 15 52 5 0 8 -9 7 -20z m-337 -124 c0 -3 -4 -8
-10 -11 -5 -3 -10 -1 -10 4 0 6 5 11 10 11 6 0 10 -2 10 -4z m44 -325 c3 -5
-1 -11 -9 -14 -9 -4 -12 -1 -8 9 6 16 10 17 17 5z m-34 -11 c0 -5 -2 -10 -4
-10 -3 0 -8 5 -11 10 -3 6 -1 10 4 10 6 0 11 -4 11 -10z m-640 -1496 c0 -8
-19 -13 -24 -6 -3 5 1 9 9 9 8 0 15 -2 15 -3z m428 -2229 c-3 -3 -9 2 -12 12
-6 14 -5 15 5 6 7 -7 10 -15 7 -18z m193 -78 c-10 -9 -11 -8 -5 6 3 10 9 15
12 12 3 -3 0 -11 -7 -18z m-613 -189 c-2 -5 -8 -9 -13 -9 -5 0 -11 4 -13 9 -1
5 4 9 13 9 9 0 14 -4 13 -9z m1292 -188 c0 -5 -2 -10 -4 -10 -3 0 -8 5 -11 10
-3 6 -1 10 4 10 6 0 11 -4 11 -10z"/>
<path d="M3385 9161 c-3 -5 0 -13 6 -17 7 -4 9 -3 5 4 -3 5 0 13 6 15 9 4 10
6 1 6 -6 1 -14 -3 -18 -8z"/>
<path d="M3795 9140 c-3 -5 -1 -10 4 -10 6 0 11 5 11 10 0 6 -2 10 -4 10 -3 0
-8 -4 -11 -10z"/>
<path d="M3369 9083 c-13 -16 -12 -17 4 -4 9 7 17 15 17 17 0 8 -8 3 -21 -13z"/>
<path d="M5215 8840 c-3 -5 -1 -10 4 -10 6 0 11 5 11 10 0 6 -2 10 -4 10 -3 0
-8 -4 -11 -10z"/>
<path d="M5013 8103 c0 -9 4 -10 14 -2 7 6 13 12 13 14 0 1 -6 2 -13 2 -8 0
-14 -6 -14 -14z"/>
<path d="M4065 8669 c-4 -6 -5 -12 -2 -15 2 -3 7 2 10 11 7 17 1 20 -8 4z"/>
<path d="M4020 8625 c-7 -8 -9 -15 -6 -15 4 0 14 7 22 15 9 8 11 15 6 15 -5 0
-15 -7 -22 -15z"/>
<path d="M3795 9810 c3 -5 8 -10 11 -10 2 0 4 5 4 10 0 6 -5 10 -11 10 -5 0
-7 -4 -4 -10z"/>
<path d="M3906 9788 c3 -5 10 -6 15 -3 13 9 11 12 -6 12 -8 0 -12 -4 -9 -9z"/>
<path d="M3405 9761 c-3 -5 -2 -12 3 -15 5 -3 9 1 9 9 0 17 -3 19 -12 6z"/>
<path d="M354 9702 c4 -3 14 -7 22 -8 9 -1 13 0 10 4 -4 3 -14 7 -22 8 -9 1
-13 0 -10 -4z"/>
<path d="M655 9700 c3 -5 8 -10 11 -10 2 0 4 5 4 10 0 6 -5 10 -11 10 -5 0 -7
-4 -4 -10z"/>
<path d="M726 9702 c-3 -5 1 -9 9 -9 8 0 15 4 15 9 0 4 -4 8 -9 8 -6 0 -12 -4
-15 -8z"/>
<path d="M815 9700 c3 -5 8 -10 11 -10 2 0 4 5 4 10 0 6 -5 10 -11 10 -5 0 -7
-4 -4 -10z"/>
<path d="M886 9702 c-3 -5 1 -9 9 -9 8 0 15 4 15 9 0 4 -4 8 -9 8 -6 0 -12 -4
-15 -8z"/>
<path d="M1240 9701 c0 -6 4 -13 10 -16 6 -3 7 1 4 9 -7 18 -14 21 -14 7z"/>
<path d="M1530 9689 c0 -5 5 -7 10 -4 6 3 10 8 10 11 0 2 -4 4 -10 4 -5 0 -10
-5 -10 -11z"/>
<path d="M2670 9580 c0 -5 5 -10 11 -10 5 0 7 5 4 10 -3 6 -8 10 -11 10 -2 0
-4 -4 -4 -10z"/>
<path d="M4156 9578 c3 -5 10 -6 15 -3 13 9 11 12 -6 12 -8 0 -12 -4 -9 -9z"/>
<path d="M5360 9580 c-9 -6 -10 -10 -3 -10 6 0 15 5 18 10 8 12 4 12 -15 0z"/>
<path d="M2696 9561 c-3 -4 1 -17 10 -27 14 -18 15 -18 5 2 -6 12 -7 24 -4 28
3 3 4 6 0 6 -3 0 -8 -4 -11 -9z"/>
<path d="M1675 9461 c-3 -5 0 -13 6 -17 7 -4 9 -3 5 4 -3 5 0 13 6 15 9 4 10
6 1 6 -6 1 -14 -3 -18 -8z"/>
<path d="M2116 9441 c-4 -5 -2 -12 3 -15 5 -4 12 -2 15 3 4 5 2 12 -3 15 -5 4
-12 2 -15 -3z"/>
<path d="M185 9400 c-3 -6 1 -7 9 -4 18 7 21 14 7 14 -6 0 -13 -4 -16 -10z"/>
<path d="M195 9369 c-4 -6 -5 -12 -2 -15 2 -3 7 2 10 11 7 17 1 20 -8 4z"/>
<path d="M826 9347 c3 -10 9 -15 12 -12 3 3 0 11 -7 18 -10 9 -11 8 -5 -6z"/>
<path d="M1066 9347 c3 -10 9 -15 12 -12 3 3 0 11 -7 18 -10 9 -11 8 -5 -6z"/>
<path d="M610 9340 c0 -5 5 -10 11 -10 5 0 7 5 4 10 -3 6 -8 10 -11 10 -2 0
-4 -4 -4 -10z"/>
<path d="M646 9338 c3 -5 10 -6 15 -3 13 9 11 12 -6 12 -8 0 -12 -4 -9 -9z"/>
<path d="M1467 9339 c7 -7 15 -10 18 -7 3 3 -2 9 -12 12 -14 6 -15 5 -6 -5z"/>
<path d="M1975 9300 c3 -5 8 -10 11 -10 2 0 4 5 4 10 0 6 -5 10 -11 10 -5 0
-7 -4 -4 -10z"/>
<path d="M3073 9245 c0 -8 4 -12 9 -9 5 3 6 10 3 15 -9 13 -12 11 -12 -6z"/>
<path d="M199 9233 c-13 -16 -12 -17 4 -4 16 13 21 21 13 21 -2 0 -10 -8 -17
-17z"/>
<path d="M550 9186 c0 -2 7 -7 16 -10 8 -3 12 -2 9 4 -6 10 -25 14 -25 6z"/>
<path d="M187 9139 c7 -7 15 -10 18 -7 3 3 -2 9 -12 12 -14 6 -15 5 -6 -5z"/>
<path d="M560 9120 c-9 -6 -10 -10 -3 -10 6 0 15 5 18 10 8 12 4 12 -15 0z"/>
<path d="M195 9081 c-3 -5 -2 -12 3 -15 5 -3 9 1 9 9 0 17 -3 19 -12 6z"/>
<path d="M1751 9060 c-13 -11 -19 -20 -14 -20 6 0 18 9 28 20 23 25 17 25 -14
0z"/>
<path d="M555 8880 c-3 -5 -1 -10 4 -10 6 0 11 5 11 10 0 6 -2 10 -4 10 -3 0
-8 -4 -11 -10z"/>
<path d="M656 8699 c3 -5 9 -7 14 -4 4 3 11 0 13 -5 3 -6 4 -5 3 1 -1 7 -10
13 -19 15 -9 1 -15 -2 -11 -7z"/>
<path d="M1544 8692 c3 -5 0 -13 -6 -15 -9 -4 -10 -6 -1 -6 17 -1 25 16 12 25
-7 4 -9 3 -5 -4z"/>
<path d="M187 8659 c7 -7 15 -10 18 -7 3 3 -2 9 -12 12 -14 6 -15 5 -6 -5z"/>
<path d="M797 8639 c12 -12 24 -21 27 -18 2 2 -8 13 -22 23 l-27 19 22 -24z"/>
<path d="M1570 8622 c6 -12 9 -26 6 -30 -2 -4 7 -7 20 -7 21 0 22 2 8 12 -8 6
-22 20 -30 30 -14 17 -14 16 -4 -5z"/>
<path d="M195 8601 c-3 -5 -2 -12 3 -15 5 -3 9 1 9 9 0 17 -3 19 -12 6z"/>
<path d="M830 8599 c0 -5 5 -7 10 -4 6 3 10 8 10 11 0 2 -4 4 -10 4 -5 0 -10
-5 -10 -11z"/>
<path d="M838 8573 c7 -3 16 -2 19 1 4 3 -2 6 -13 5 -11 0 -14 -3 -6 -6z"/>
<path d="M190 8521 c0 -6 4 -12 8 -15 5 -3 9 1 9 9 0 8 -4 15 -9 15 -4 0 -8
-4 -8 -9z"/>
<path d="M5570 8479 c0 -5 5 -7 10 -4 6 3 10 8 10 11 0 2 -4 4 -10 4 -5 0 -10
-5 -10 -11z"/>
<path d="M736 8353 c-6 -14 -5 -15 5 -6 7 7 10 15 7 18 -3 3 -9 -2 -12 -12z"/>
<path d="M199 8273 c-13 -16 -12 -17 4 -4 9 7 17 15 17 17 0 8 -8 3 -21 -13z"/>
<path d="M553 8205 c0 -8 4 -15 9 -15 4 0 8 4 8 9 0 6 -4 12 -8 15 -5 3 -9 -1
-9 -9z"/>
<path d="M187 8179 c7 -7 15 -10 18 -7 3 3 -2 9 -12 12 -14 6 -15 5 -6 -5z"/>
<path d="M554 8166 c1 -8 5 -18 8 -22 4 -3 5 1 4 10 -1 8 -5 18 -8 22 -4 3 -5
-1 -4 -10z"/>
<path d="M195 8121 c-3 -5 -2 -12 3 -15 5 -3 9 1 9 9 0 17 -3 19 -12 6z"/>
<path d="M555 7920 c-3 -5 -1 -10 4 -10 6 0 11 5 11 10 0 6 -2 10 -4 10 -3 0
-8 -4 -11 -10z"/>
<path d="M1893 7833 c4 -3 1 -13 -6 -22 -11 -14 -10 -14 5 -2 16 12 16 31 1
31 -4 0 -3 -3 0 -7z"/>
<path d="M560 7782 c9 -19 30 -23 30 -5 0 4 -3 3 -7 0 -3 -4 -12 1 -20 11 -13
15 -13 15 -3 -6z"/>
<path d="M646 7762 c-3 -5 1 -9 9 -9 8 0 15 4 15 9 0 4 -4 8 -9 8 -6 0 -12 -4
-15 -8z"/>
<path d="M187 7699 c7 -7 15 -10 18 -7 3 3 -2 9 -12 12 -14 6 -15 5 -6 -5z"/>
<path d="M1835 7680 c-3 -5 -1 -10 4 -10 6 0 11 5 11 10 0 6 -2 10 -4 10 -3 0
-8 -4 -11 -10z"/>
<path d="M195 7641 c-3 -5 -2 -12 3 -15 5 -3 9 1 9 9 0 17 -3 19 -12 6z"/>
<path d="M837 7629 c7 -7 15 -10 18 -7 3 3 -2 9 -12 12 -14 6 -15 5 -6 -5z"/>
<path d="M1820 7619 c0 -5 5 -7 10 -4 6 3 10 8 10 11 0 2 -4 4 -10 4 -5 0 -10
-5 -10 -11z"/>
<path d="M843 7575 c0 -7 6 -11 14 -8 7 3 13 6 13 8 0 2 -6 5 -13 8 -8 3 -14
-1 -14 -8z"/>
<path d="M190 7561 c0 -6 4 -12 8 -15 5 -3 9 1 9 9 0 8 -4 15 -9 15 -4 0 -8
-4 -8 -9z"/>
<path d="M840 7519 c0 -5 5 -7 10 -4 6 3 10 8 10 11 0 2 -4 4 -10 4 -5 0 -10
-5 -10 -11z"/>
<path d="M1822 7517 c10 -8 16 -16 13 -19 -3 -2 2 -5 10 -5 19 0 10 14 -18 27
-20 10 -20 10 -5 -3z"/>
<path d="M752 7438 c-7 -7 -12 -16 -12 -21 0 -5 7 -1 16 8 9 9 14 18 12 20 -2
3 -10 -1 -16 -7z"/>
<path d="M199 7313 c-13 -16 -12 -17 4 -4 16 13 21 21 13 21 -2 0 -10 -8 -17
-17z"/>
<path d="M550 7266 c0 -2 7 -7 16 -10 8 -3 12 -2 9 4 -6 10 -25 14 -25 6z"/>
<path d="M187 7219 c7 -7 15 -10 18 -7 3 3 -2 9 -12 12 -14 6 -15 5 -6 -5z"/>
<path d="M560 7200 c-9 -6 -10 -10 -3 -10 6 0 15 5 18 10 8 12 4 12 -15 0z"/>
<path d="M195 7161 c-3 -5 -2 -12 3 -15 5 -3 9 1 9 9 0 17 -3 19 -12 6z"/>
<path d="M555 6960 c-3 -5 -1 -10 4 -10 6 0 11 5 11 10 0 6 -2 10 -4 10 -3 0
-8 -4 -11 -10z"/>
<path d="M753 6765 c0 -8 4 -12 9 -9 5 3 6 10 3 15 -9 13 -12 11 -12 -6z"/>
<path d="M187 6739 c7 -7 15 -10 18 -7 3 3 -2 9 -12 12 -14 6 -15 5 -6 -5z"/>
<path d="M195 6681 c-3 -5 -2 -12 3 -15 5 -3 9 1 9 9 0 17 -3 19 -12 6z"/>
<path d="M849 6648 c-4 -15 -6 -60 -2 -50 3 6 9 9 15 6 6 -4 6 1 -1 13 -6 11
-7 23 -4 27 3 3 3 6 0 6 -4 0 -7 -1 -8 -2z"/>
<path d="M190 6601 c0 -6 4 -12 8 -15 5 -3 9 1 9 9 0 8 -4 15 -9 15 -4 0 -8
-4 -8 -9z"/>
<path d="M769 6463 c-13 -16 -12 -17 4 -4 16 13 21 21 13 21 -2 0 -10 -8 -17
-17z"/>
<path d="M199 6353 c-13 -16 -12 -17 4 -4 9 7 17 15 17 17 0 8 -8 3 -21 -13z"/>
<path d="M560 6360 c-9 -6 -10 -10 -3 -10 6 0 15 5 18 10 8 12 4 12 -15 0z"/>
<path d="M553 6285 c0 -8 4 -15 9 -15 4 0 8 4 8 9 0 6 -4 12 -8 15 -5 3 -9 -1
-9 -9z"/>
<path d="M187 6259 c7 -7 15 -10 18 -7 3 3 -2 9 -12 12 -14 6 -15 5 -6 -5z"/>
<path d="M554 6246 c1 -8 5 -18 8 -22 4 -3 5 1 4 10 -1 8 -5 18 -8 22 -4 3 -5
-1 -4 -10z"/>
<path d="M195 6201 c-3 -5 -2 -12 3 -15 5 -3 9 1 9 9 0 17 -3 19 -12 6z"/>
<path d="M630 5850 c0 -5 5 -10 10 -10 6 0 10 5 10 10 0 6 -4 10 -10 10 -5 0
-10 -4 -10 -10z"/>
<path d="M806 5802 c-3 -5 1 -9 9 -9 8 0 15 4 15 9 0 4 -4 8 -9 8 -6 0 -12 -4
-15 -8z"/>
<path d="M187 5779 c7 -7 15 -10 18 -7 3 3 -2 9 -12 12 -14 6 -15 5 -6 -5z"/>
<path d="M815 5770 c3 -5 8 -10 11 -10 2 0 4 5 4 10 0 6 -5 10 -11 10 -5 0 -7
-4 -4 -10z"/>
<path d="M195 5721 c-3 -5 -2 -12 3 -15 5 -3 9 1 9 9 0 17 -3 19 -12 6z"/>
<path d="M190 5641 c0 -6 4 -12 8 -15 5 -3 9 1 9 9 0 8 -4 15 -9 15 -4 0 -8
-4 -8 -9z"/>
<path d="M804 5568 c-4 -7 -4 -10 1 -6 4 4 15 2 24 -5 14 -11 14 -10 2 6 -16
20 -18 21 -27 5z"/>
<path d="M670 5501 c0 -6 4 -13 10 -16 6 -3 7 1 4 9 -7 18 -14 21 -14 7z"/>
<path d="M199 5393 c-13 -16 -12 -17 4 -4 9 7 17 15 17 17 0 8 -8 3 -21 -13z"/>
<path d="M550 5346 c0 -2 7 -7 16 -10 8 -3 12 -2 9 4 -6 10 -25 14 -25 6z"/>
<path d="M1797 5329 c7 -7 15 -10 18 -7 3 3 -2 9 -12 12 -14 6 -15 5 -6 -5z"/>
<path d="M1770 5320 c0 -5 5 -10 11 -10 5 0 7 5 4 10 -3 6 -8 10 -11 10 -2 0
-4 -4 -4 -10z"/>
<path d="M187 5299 c7 -7 15 -10 18 -7 3 3 -2 9 -12 12 -14 6 -15 5 -6 -5z"/>
<path d="M560 5280 c-9 -6 -10 -10 -3 -10 6 0 15 5 18 10 8 12 4 12 -15 0z"/>
<path d="M195 5241 c-3 -5 -2 -12 3 -15 5 -3 9 1 9 9 0 17 -3 19 -12 6z"/>
<path d="M1510 5179 c0 -5 5 -7 10 -4 6 3 10 8 10 11 0 2 -4 4 -10 4 -5 0 -10
-5 -10 -11z"/>
<path d="M1397 5093 c-10 -9 -9 -23 1 -23 5 0 9 7 9 15 0 17 -1 18 -10 8z"/>
<path d="M1315 5001 c-3 -5 -2 -12 3 -15 5 -3 9 1 9 9 0 17 -3 19 -12 6z"/>
<path d="M1213 4955 c0 -8 4 -12 9 -9 5 3 6 10 3 15 -9 13 -12 11 -12 -6z"/>
<path d="M187 4819 c7 -7 15 -10 18 -7 3 3 -2 9 -12 12 -14 6 -15 5 -6 -5z"/>
<path d="M195 4761 c-3 -5 -2 -12 3 -15 5 -3 9 1 9 9 0 17 -3 19 -12 6z"/>
<path d="M1432 4723 c4 -18 21 -18 24 0 1 8 -5 14 -13 14 -7 0 -13 -7 -11 -14z"/>
<path d="M1396 4722 c-3 -5 1 -9 9 -9 8 0 12 4 9 9 -3 4 -7 8 -9 8 -2 0 -6 -4
-9 -8z"/>
<path d="M1350 4716 c0 -2 7 -7 16 -10 8 -3 12 -2 9 4 -6 10 -25 14 -25 6z"/>
<path d="M190 4681 c0 -6 4 -12 8 -15 5 -3 9 1 9 9 0 8 -4 15 -9 15 -4 0 -8
-4 -8 -9z"/>
<path d="M1190 4646 c0 -2 7 -7 16 -10 8 -3 12 -2 9 4 -6 10 -25 14 -25 6z"/>
<path d="M1015 4620 c-3 -5 -1 -10 4 -10 6 0 11 5 11 10 0 6 -2 10 -4 10 -3 0
-8 -4 -11 -10z"/>
<path d="M554 4486 c1 -8 5 -18 8 -22 4 -3 5 1 4 10 -1 8 -5 18 -8 22 -4 3 -5
-1 -4 -10z"/>
<path d="M199 4433 c-13 -16 -12 -17 4 -4 9 7 17 15 17 17 0 8 -8 3 -21 -13z"/>
<path d="M187 4339 c7 -7 15 -10 18 -7 3 3 -2 9 -12 12 -14 6 -15 5 -6 -5z"/>
<path d="M555 4321 c-3 -5 -2 -12 3 -15 5 -3 9 1 9 9 0 17 -3 19 -12 6z"/>
<path d="M195 4281 c-3 -5 -2 -12 3 -15 5 -3 9 1 9 9 0 17 -3 19 -12 6z"/>
<path d="M1570 4239 c0 -5 5 -7 10 -4 6 3 10 8 10 11 0 2 -4 4 -10 4 -5 0 -10
-5 -10 -11z"/>
<path d="M553 4045 c0 -8 4 -12 9 -9 5 3 6 10 3 15 -9 13 -12 11 -12 -6z"/>
<path d="M606 3982 c-3 -5 1 -9 9 -9 8 0 15 4 15 9 0 4 -4 8 -9 8 -6 0 -12 -4
-15 -8z"/>
<path d="M710 3966 c0 -2 7 -7 16 -10 8 -3 12 -2 9 4 -6 10 -25 14 -25 6z"/>
<path d="M830 3890 c-9 -6 -10 -10 -3 -10 6 0 15 5 18 10 8 12 4 12 -15 0z"/>
<path d="M187 3859 c7 -7 15 -10 18 -7 3 3 -2 9 -12 12 -14 6 -15 5 -6 -5z"/>
<path d="M845 3820 c-3 -5 -1 -10 4 -10 6 0 11 5 11 10 0 6 -2 10 -4 10 -3 0
-8 -4 -11 -10z"/>
<path d="M195 3801 c-3 -5 -2 -12 3 -15 5 -3 9 1 9 9 0 17 -3 19 -12 6z"/>
<path d="M190 3721 c0 -6 4 -12 8 -15 5 -3 9 1 9 9 0 8 -4 15 -9 15 -4 0 -8
-4 -8 -9z"/>
<path d="M199 3473 c-13 -16 -12 -17 4 -4 9 7 17 15 17 17 0 8 -8 3 -21 -13z"/>
<path d="M550 3426 c0 -2 7 -7 16 -10 8 -3 12 -2 9 4 -6 10 -25 14 -25 6z"/>
<path d="M187 3379 c7 -7 15 -10 18 -7 3 3 -2 9 -12 12 -14 6 -15 5 -6 -5z"/>
<path d="M560 3360 c-9 -6 -10 -10 -3 -10 6 0 15 5 18 10 8 12 4 12 -15 0z"/>
<path d="M195 3321 c-3 -5 -2 -12 3 -15 5 -3 9 1 9 9 0 17 -3 19 -12 6z"/>
<path d="M802 2945 c2 -1 12 -7 24 -13 15 -8 21 -8 21 1 0 7 -11 13 -24 13
-14 1 -23 1 -21 -1z"/>
<path d="M187 2899 c7 -7 15 -10 18 -7 3 3 -2 9 -12 12 -14 6 -15 5 -6 -5z"/>
<path d="M195 2841 c-3 -5 -2 -12 3 -15 5 -3 9 1 9 9 0 17 -3 19 -12 6z"/>
<path d="M190 2761 c0 -6 4 -12 8 -15 5 -3 9 1 9 9 0 8 -4 15 -9 15 -4 0 -8
-4 -8 -9z"/>
<path d="M710 2670 c-9 -6 -10 -10 -3 -10 6 0 15 5 18 10 8 12 4 12 -15 0z"/>
<path d="M554 2566 c1 -8 5 -18 8 -22 4 -3 5 1 4 10 -1 8 -5 18 -8 22 -4 3 -5
-1 -4 -10z"/>
<path d="M199 2513 c-13 -16 -12 -17 4 -4 9 7 17 15 17 17 0 8 -8 3 -21 -13z"/>
<path d="M187 2419 c7 -7 15 -10 18 -7 3 3 -2 9 -12 12 -14 6 -15 5 -6 -5z"/>
<path d="M555 2401 c-3 -5 -2 -12 3 -15 5 -3 9 1 9 9 0 17 -3 19 -12 6z"/>
<path d="M195 2361 c-3 -5 -2 -12 3 -15 5 -3 9 1 9 9 0 17 -3 19 -12 6z"/>
<path d="M670 2106 c0 -2 7 -9 15 -16 13 -11 14 -10 9 4 -5 14 -24 23 -24 12z"/>
<path d="M836 1977 c3 -10 9 -15 12 -12 3 3 0 11 -7 18 -10 9 -11 8 -5 -6z"/>
<path d="M187 1939 c7 -7 15 -10 18 -7 3 3 -2 9 -12 12 -14 6 -15 5 -6 -5z"/>
<path d="M195 1881 c-3 -5 -2 -12 3 -15 5 -3 9 1 9 9 0 17 -3 19 -12 6z"/>
<path d="M816 1841 c-15 -16 -15 -19 -2 -24 11 -4 13 -1 9 10 -4 10 -2 14 5 9
6 -3 13 -2 16 3 12 19 -12 20 -28 2z"/>
<path d="M190 1801 c0 -6 4 -12 8 -15 5 -3 9 1 9 9 0 8 -4 15 -9 15 -4 0 -8
-4 -8 -9z"/>
<path d="M199 1553 c-13 -16 -12 -17 4 -4 9 7 17 15 17 17 0 8 -8 3 -21 -13z"/>
<path d="M550 1506 c0 -2 7 -7 16 -10 8 -3 12 -2 9 4 -6 10 -25 14 -25 6z"/>
<path d="M187 1459 c7 -7 15 -10 18 -7 3 3 -2 9 -12 12 -14 6 -15 5 -6 -5z"/>
<path d="M560 1440 c-9 -6 -10 -10 -3 -10 6 0 15 5 18 10 8 12 4 12 -15 0z"/>
<path d="M195 1401 c-3 -5 -2 -12 3 -15 5 -3 9 1 9 9 0 17 -3 19 -12 6z"/>
<path d="M187 979 c7 -7 15 -10 18 -7 3 3 -2 9 -12 12 -14 6 -15 5 -6 -5z"/>
<path d="M195 921 c-3 -5 -2 -12 3 -15 5 -3 9 1 9 9 0 17 -3 19 -12 6z"/>
<path d="M190 841 c0 -6 4 -12 8 -15 5 -3 9 1 9 9 0 8 -4 15 -9 15 -4 0 -8 -4
-8 -9z"/>
<path d="M560 820 c-9 -6 -10 -10 -3 -10 6 0 15 5 18 10 8 12 4 12 -15 0z"/>
<path d="M555 760 c-3 -5 -1 -10 4 -10 6 0 11 5 11 10 0 6 -2 10 -4 10 -3 0
-8 -4 -11 -10z"/>
<path d="M1235 700 c-3 -6 1 -7 9 -4 18 7 21 14 7 14 -6 0 -13 -4 -16 -10z"/>
<path d="M1230 676 c0 -2 8 -10 18 -17 15 -13 16 -12 3 4 -13 16 -21 21 -21
13z"/>
<path d="M199 593 c-13 -16 -12 -17 4 -4 9 7 17 15 17 17 0 8 -8 3 -21 -13z"/>
<path d="M1150 569 c0 -5 5 -7 10 -4 6 3 10 8 10 11 0 2 -4 4 -10 4 -5 0 -10
-5 -10 -11z"/>
<path d="M187 499 c7 -7 15 -10 18 -7 3 3 -2 9 -12 12 -14 6 -15 5 -6 -5z"/>
<path d="M195 441 c-3 -5 -2 -12 3 -15 5 -3 9 1 9 9 0 17 -3 19 -12 6z"/>
<path d="M1270 360 c0 -5 5 -10 10 -10 6 0 10 5 10 10 0 6 -4 10 -10 10 -5 0
-10 -4 -10 -10z"/>
<path d="M1247 317 c-3 -8 -2 -20 3 -26 5 -9 8 -4 8 13 0 29 -3 32 -11 13z"/>
<path d="M995 230 c-3 -5 -1 -10 4 -10 6 0 11 5 11 10 0 6 -2 10 -4 10 -3 0
-8 -4 -11 -10z"/>
<path d="M1380 122 c0 -15 28 -23 36 -9 4 7 4 9 -1 5 -4 -4 -14 -3 -22 3 -8 7
-13 8 -13 1z"/>
<path d="M1435 71 c-3 -5 -2 -12 3 -15 5 -3 9 1 9 9 0 17 -3 19 -12 6z"/>
<path d="M195 41 c-3 -5 -2 -12 3 -15 5 -3 9 1 9 9 0 17 -3 19 -12 6z"/>
</g>
</svg>
